<?xml version="1.0" encoding="UTF-8" standalone="no"?>
<!DOCTYPE svg PUBLIC "-//W3C//DTD SVG 1.1//EN" "http://www.w3.org/Graphics/SVG/1.1/DTD/svg11.dtd">
<svg width="100%" height="100%" viewBox="0 0 700 420" version="1.1" xmlns="http://www.w3.org/2000/svg" xmlns:xlink="http://www.w3.org/1999/xlink" xml:space="preserve" xmlns:serif="http://www.serif.com/" style="fill-rule:evenodd;clip-rule:evenodd;stroke-linejoin:round;stroke-miterlimit:2;">
    <g id="logo" transform="matrix(0.875,0,0,0.7,0,0)">
        <rect x="0" y="0" width="800" height="600" style="fill:none;"/>
        <g id="performers" transform="matrix(0.331346,0,0,0.440768,-950.481,-101.934)">
            <path d="M5002.56,575.388C5001.86,577.102 4994.46,594.435 4977.93,603.279C4977.93,603.279 4962.86,628.01 4961.8,630.422C4960.77,632.824 4958.65,637.636 4957.69,639.075C4956.77,640.545 4957.15,642.342 4955.24,643.659C4953.34,645.017 4956.16,650.981 4956.16,650.981C4956.16,650.981 4959.74,660.524 4958.94,664.124C4958.94,664.124 4982.25,653.271 5011.15,659.97C5011.15,659.97 5079.75,603.303 5088.55,597.69C5097.37,592.095 5109.98,571.938 5112.9,565.064C5115.81,558.208 5136.26,514.527 5147.47,504.057C5158.66,493.56 5195.65,454.208 5198.46,449.849C5201.3,445.496 5206.48,437.535 5206.48,437.535C5206.48,437.535 5205.27,414.062 5219.37,405.449C5233.49,396.85 5234.55,384.129 5236.72,379.61C5238.88,375.104 5249.57,354.725 5249.57,354.725C5249.57,354.725 5250.94,347.893 5259.24,351.75C5259.24,351.75 5276.41,354.666 5274.62,365.375C5272.81,376.041 5273.76,364.296 5273.76,364.296C5273.76,364.296 5266.72,400.43 5263.19,405.877C5259.65,411.285 5258.22,416.286 5256.04,420.823C5253.87,425.331 5240.56,452.515 5228.35,459.781C5228.35,459.781 5207.85,485.35 5203.3,491.911C5198.76,498.504 5178.44,530.925 5172.58,543.097C5166.72,555.265 5155.3,579.511 5152.38,586.389C5149.46,593.25 5144.29,608.703 5138.95,612.958C5138.95,612.958 5062.7,726.521 5051.49,731.067L5051.68,731.977L5053.33,741.307C5053.33,741.307 5058.64,750.179 5053.95,760.536C5053.95,760.536 5002.84,880.66 4988.98,896.395C4988.98,896.395 4983.42,908.483 4981.11,922.709C4981.11,922.709 4976.01,965.015 4956.7,985.964C4956.7,985.964 4916.41,1033.2 4910.24,1039.49C4910.24,1039.49 4899.43,1048.98 4903.51,1059.36C4903.51,1059.36 4911.1,1078.11 4895.35,1081.43C4895.35,1081.43 4880.11,1084.66 4878.88,1093.94C4878.88,1093.94 4863.36,1118.46 4852.25,1118.68C4852.25,1118.68 4836.37,1118.87 4840.53,1108.43C4840.53,1108.43 4854.11,1054.58 4876.29,1033.96C4876.29,1033.96 4924.27,949.488 4927.43,939.256C4927.43,939.256 4935.3,923.794 4933.61,908.225C4933.61,908.225 4947.3,837.38 4950.97,819.608C4950.97,819.608 4962.18,782.181 4966.51,777.563C4966.51,777.563 4950.24,770.907 4947.94,765.026C4947.94,765.026 4869.42,712.588 4872.71,677.911C4872.71,677.911 4869.63,638.242 4868.83,629.368C4868.02,620.504 4872.1,584.595 4901.84,574.611C4901.84,574.611 4915.59,562.023 4917.34,555.264C4919.1,548.511 4922.59,524.564 4905.67,514.844C4905.67,514.844 4893.9,509.379 4907.48,503.323C4907.48,503.323 4906.73,495.789 4915.46,496.496L4913.61,494.334L4915.63,491.805C4915.63,491.805 4914.18,489.322 4917.29,487.514L4919.68,485.6C4919.68,485.6 4912.3,476.017 4921.21,475.292C4921.21,475.292 4929.92,476.952 4935.72,472.464C4935.72,472.464 4942,463.687 4946.61,461.334C4951.22,458.963 4961.69,454.654 4969.14,454.688C4969.14,454.688 5006.38,423.131 5020.42,418.063C5020.42,418.063 5047.55,403.513 5051.44,396.648C5051.44,396.648 5060.84,373.985 5068.47,370.513C5068.47,370.513 5075.94,361.957 5079.01,367.59C5079.01,367.59 5081.45,371.474 5080.13,372.918C5080.13,372.918 5088.92,373.841 5087.13,378.646L5083.9,379.783C5083.9,379.783 5088.76,379.7 5089.49,382.089C5089.49,382.089 5101.82,367.87 5103.32,365.003C5103.32,365.003 5111.27,354.247 5110.11,366.354C5110.11,366.354 5096.68,386.389 5093.94,388.832C5093.94,388.832 5083.41,408.241 5071.16,410.83C5071.16,410.83 5065,413.521 5063.71,416.142C5063.71,416.142 5054.07,424.433 5049.86,426.488C5049.86,426.488 5026.04,450.112 5021.88,456.802C5021.88,456.802 5003.88,475.02 5001.74,475.932C5001.74,475.932 5017.5,490.033 5012.61,507.556C5012.61,507.556 5017.83,512.012 5018.19,514.502C5018.19,514.502 5037.81,499.432 5041.34,495.548C5044.9,491.67 5057.83,483.339 5063.83,479.235C5069.85,475.173 5100.14,451.569 5105.32,447.996C5110.49,444.391 5127.82,428.866 5128.93,426.743C5128.93,426.743 5125.84,412.107 5129.18,404.226C5129.18,404.226 5124.98,382.924 5134.88,388.348C5134.88,388.348 5138.1,393.286 5136.69,401.385L5137.38,404.668L5139.82,402.914C5139.82,402.914 5141.91,390.606 5144.23,389.782C5144.23,389.782 5141.88,381.555 5142.75,379.817C5142.75,379.817 5138.32,375.109 5138.3,373.548C5138.3,373.548 5124.43,369.932 5130.71,364.224C5130.71,364.224 5139.14,367.124 5139.4,368.333C5139.4,368.333 5137.03,355.72 5143.91,364.562C5143.91,364.562 5145.93,357.877 5149.03,368.158C5149.03,368.158 5153.29,379.454 5153.14,381.661C5153.14,381.661 5156.38,392.543 5156.57,394.975C5156.78,397.445 5155.86,406.393 5154.12,411.434C5152.38,416.496 5146.42,437.105 5146.42,437.105C5143.43,442.11 5138.19,445.427 5134.8,448.619C5131.43,451.844 5113.23,469.114 5108.18,474.871C5103.16,480.613 5070.13,507.594 5062.49,509.818C5062.49,509.818 5045.41,528.104 5038.91,534.174C5032.37,540.238 5006.72,572.531 5003.46,574.78L5002.56,575.388ZM5002.56,575.388L5002.61,575.251C5002.61,575.251 5002.13,575.599 5001.88,575.79C5001.63,575.981 5001.62,576.016 5002.56,575.388ZM3617.08,973.165C3618.86,982.109 3619.92,990.424 3619.82,997.192C3618.41,998.355 3616.97,999.423 3615.51,1000.4L3608.83,1116.3L3596.06,1116.3L3596.06,1008.71C3580.49,1012.39 3567.08,1009.81 3567.08,1009.81C3567.08,1009.81 3543.03,1022.42 3533.33,1025.58C3523.63,1028.74 3508.02,1026.93 3508.02,1026.93C3508.02,1026.93 3504.95,1009.86 3503.09,996.157C3499.66,1005.92 3496.23,1019.44 3494.66,1031.05C3495.16,1032.08 3495.37,1033.21 3495.21,1035.89C3494.89,1041.12 3494.58,1042.31 3494.89,1043.32C3495.11,1044.02 3495.03,1045.13 3494.01,1046.97C3495.56,1060.43 3506.9,1083.93 3505.64,1087.59C3506.6,1086.41 3508.65,1087.08 3509.6,1088.27C3510.55,1089.45 3509.6,1090.29 3509.6,1090.29C3509.6,1090.29 3511.82,1089.28 3512.92,1090.63C3514.03,1091.98 3513.72,1093.5 3513.72,1093.5C3513.72,1093.5 3516.41,1093.68 3518.3,1094.18C3520.21,1094.68 3522.57,1095.7 3522.57,1095.7C3522.57,1095.7 3524.78,1096.21 3526.69,1095.02C3528.58,1093.84 3530.17,1092.83 3531.59,1094.35C3533.02,1095.87 3533.96,1099.25 3531.13,1101.95C3539.5,1101.78 3537.13,1107.52 3537.13,1107.52C3537.13,1107.52 3538.39,1108.88 3537.92,1109.22C3536.18,1110.74 3520.83,1118.68 3511.5,1118.68L3487.77,1118.68C3482.08,1118.68 3479.7,1116.82 3479.06,1113.61C3474.17,1097.73 3462.14,1080.16 3458.19,1076.1C3454.23,1072.05 3451.23,1072.22 3450.27,1075.09C3449.32,1077.96 3450.75,1109.05 3450.75,1117.49L3446.47,1117.49C3446.47,1098.4 3443.89,1083.02 3443.05,1073.34C3442.2,1063.65 3435.03,1056.89 3433.56,1051.93C3432.08,1046.98 3437.78,1049.91 3437.78,1049.91C3437.78,1049.91 3436.09,1044.73 3437.78,1039.99C3439.47,1035.27 3445.79,1030.09 3450.64,1024.9C3454.27,1021.03 3456.48,1016.15 3460.62,1006.04C3460.33,1003.73 3461.64,1000.91 3462.14,1000.23C3462.55,999.702 3462.94,998.89 3463.79,998.289C3464.37,996.876 3464.97,995.388 3465.62,993.817C3472.88,976.224 3477.94,940.562 3480.48,925.663C3479.56,923.422 3478.61,921.168 3477.69,918.921C3460.34,979.181 3439.85,1035.13 3432.08,1046.53C3416.89,1068.84 3406.77,1063.43 3406.77,1063.43C3406.77,1063.43 3405.51,1069.51 3401.07,1074.92C3378.29,1074.24 3355.51,1061.4 3355.51,1061.4C3355.51,1061.4 3360.43,1027.68 3364.3,998.23L3363.74,998.881C3346.34,1019.5 3346.02,1025.58 3342.38,1040.39C3340.64,1058.7 3348.23,1076.61 3356.77,1083.06C3359.78,1083.89 3360,1087.37 3360.62,1087.19C3361.23,1087.01 3364.44,1087.85 3365.87,1091.4C3367.53,1090.85 3370.22,1093.61 3371.83,1093.92C3373.44,1094.24 3376.32,1093.33 3377.44,1095.13C3380.01,1100.27 3377.01,1103.33 3377.01,1103.33C3377.01,1103.33 3380.08,1102.87 3380.57,1105.28C3381.04,1107.69 3380.35,1109.38 3380.35,1109.38C3380.35,1109.38 3381.35,1109.66 3381.47,1111.18C3381.59,1112.7 3380.34,1113.49 3376.85,1114.15C3373.37,1114.81 3347.46,1117.81 3338.74,1117.72C3330.02,1117.64 3315.31,1115.89 3313.99,1113.87C3312.68,1111.84 3309.55,1094.1 3309.02,1084.97C3308.48,1075.85 3304.77,1069.34 3304.77,1069.34L3304.4,1107.23L3298.95,1106.9C3299.5,1092.42 3297.99,1074.79 3297.03,1066.07C3296.06,1057.34 3292.05,1052.77 3289.67,1047.65C3287.31,1042.52 3288.79,1041.31 3290.48,1040.11C3291.39,1034.32 3293.22,1028.19 3298.18,1024.76C3305.7,1019.55 3312.16,1014.43 3318.5,1008.34C3324.82,1002.26 3341.28,952.927 3358.04,925.552C3363.64,916.427 3370.28,907.735 3376.91,900.076C3377.39,897.776 3377.86,895.643 3378.29,893.787C3382.09,877.567 3381.46,825.525 3382.09,818.092C3382.73,810.653 3372.6,776.64 3371.54,773.485C3370.49,770.331 3359.95,759.97 3353.82,752.984C3347.71,745.999 3343.07,733.834 3342.65,730.229C3342.22,726.625 3340.33,716.714 3340.33,716.714C3340.33,716.714 3338.64,710.629 3339.69,707.024C3340.75,703.419 3338.85,691.935 3338.64,687.423C3338.43,682.922 3341.38,671.881 3341.38,671.881C3341.38,671.881 3340.53,668.053 3340.33,667.149C3340.12,666.249 3340.96,654.081 3341.17,650.93C3341.38,647.775 3337.17,643.944 3336.53,643.721C3335.9,643.491 3333.58,639.889 3332.52,639.216C3331.46,638.535 3331.26,636.061 3328.51,634.257C3325.78,632.456 3326.2,625.697 3325.35,626.824C3325.26,626.939 3325.6,626.236 3326.24,624.941C3315.97,613.395 3307.23,599.995 3304.89,596.745C3301.72,592.352 3295.08,583.23 3288.12,563.629C3281.16,544.029 3283.06,525.782 3287.17,515.306C3291.28,504.831 3301.41,507.874 3305.52,507.532C3309.64,507.193 3311.54,504.831 3311.54,504.831C3311.54,504.831 3310.26,500.102 3312.16,498.075C3312.73,497.47 3314.14,497.109 3315.96,496.948C3315.53,495.341 3315.15,494.46 3315.15,494.46C3315.15,494.46 3314.7,495.308 3314.06,495.709C3314.68,494.782 3313.76,492.972 3313.76,492.972L3312.94,494.414C3312.94,494.414 3312.84,493.402 3312.93,492.4C3306.73,492.591 3296.5,484.75 3293.22,481.05C3291.69,479.322 3291.06,476.729 3290.56,474.534C3286.16,475.809 3281.72,474.81 3279.19,470.644C3281.38,479.062 3288.03,485.47 3297.13,486.058C3293.54,487.281 3282.66,484.734 3278.58,472.895C3278.15,475.54 3278.67,478.803 3278.67,478.803C3278.67,478.803 3276.81,474.005 3276.83,468.902C3275.74,468.521 3274.83,468.084 3274.2,467.611C3273.21,471.656 3270.19,473.683 3268.44,473.414C3270.26,472.234 3271.49,471.594 3272.4,467.227C3269.2,466.523 3264.82,462.955 3264.82,462.955C3264.82,462.955 3266.28,466.109 3267.51,466.707C3265.35,465.915 3263.88,464.092 3262.93,462.676C3263.27,464.384 3264.22,465.423 3265.3,466.878C3264.27,466.159 3263.49,465.465 3262.93,464.749C3263.86,466.786 3265.23,469.129 3266.87,470.516C3265.01,470.844 3262.82,467.388 3262.82,467.388L3265.03,473.381C3265.03,473.381 3261.99,468.081 3261.61,466.872L3261.56,466.648C3260.25,464.716 3258.45,459.744 3258.97,454.405C3258.83,453.659 3258.68,453.015 3258.57,452.644C3258.18,451.441 3257.36,451.608 3257.36,451.608L3258.5,457.674C3258.5,457.674 3257.1,453.209 3256.43,451.815C3256.65,455.545 3257.23,456.981 3258.18,460.582C3254.4,455.414 3256.15,449.611 3255.97,448.944C3255.81,448.277 3255.68,444.721 3256.6,442.812C3257.51,440.9 3257.68,438.59 3257.68,438.59C3257.68,438.59 3254.83,444.363 3254.38,445.74C3253.95,447.11 3254.06,456.524 3254.06,456.524C3254.06,456.524 3252.94,448.536 3253.72,445.303C3254.5,442.073 3257.98,436.115 3258.46,434.614C3258.82,433.542 3261.39,428.683 3263.19,424.979C3260.92,427.066 3259.28,430.201 3259.28,430.201C3259.28,430.201 3259.82,427.628 3261.82,424.933C3258.51,427.5 3256.68,430.496 3258.51,433.743C3257.52,433.03 3256.16,429.402 3259.51,425.843L3259.62,425.719C3257.76,427.378 3256.39,429.169 3255.78,430.424C3256.18,428.863 3257.87,425.906 3261.6,423.458C3261.26,423.55 3260.93,423.639 3260.62,423.731C3255.13,427.145 3254.87,432.208 3255.5,434.173C3253.49,431.282 3255.38,427.44 3258.74,424.362C3258.07,424.621 3257.65,424.805 3257.65,424.805C3257.65,424.805 3258.35,423.855 3260.99,422.574C3262.38,421.621 3263.86,420.813 3265.37,420.218C3265.4,420.182 3265.43,420.152 3265.44,420.119C3265.28,417.109 3265.05,414.734 3266.76,411.977C3266.06,413.686 3266.34,416.85 3266.34,416.85C3266.34,416.85 3266.53,414.629 3267.37,412.976C3267.1,413.971 3267.39,415.411 3267.5,415.933C3267.5,414.964 3268.33,410.232 3271.72,406.506C3272.86,405.247 3274.3,404.422 3275.87,403.995C3275.98,403.41 3276.17,402.957 3276.47,402.727C3276.29,403.108 3276.18,403.512 3276.1,403.939C3277.52,403.581 3279.03,403.562 3280.45,403.851C3280.72,403.289 3281.09,402.763 3281.57,402.293C3281.36,402.895 3281.18,403.453 3281.04,403.985C3282.44,404.363 3283.76,405.04 3284.79,406.013C3285.82,402.816 3287.78,398.8 3291.53,396.119C3298.64,391.039 3306.18,390.973 3309.99,393.263C3310.95,393.835 3312.1,394.716 3313.22,395.652C3314.39,395.892 3315.5,396.241 3316.39,396.802C3315.81,395.587 3314.48,395.245 3314.48,395.245C3314.48,395.245 3317.12,394.88 3319.15,396.71C3321.18,398.541 3318.61,395.363 3321.5,398.074C3322,398.554 3322.46,398.922 3322.87,399.201C3323.25,398.879 3323.69,398.557 3323.96,398.534C3324.54,398.482 3326.24,398.978 3327.74,399.986C3329.24,400.995 3329.85,400.292 3329.85,400.292C3329.85,400.292 3330.47,399.582 3329.83,399.241C3330.62,398.981 3332.05,399.812 3332.05,399.812C3332.05,399.812 3331.42,398.511 3330.83,398.248C3332.1,397.982 3333.16,399.622 3334.41,399.474C3335.64,399.333 3339.58,400.706 3341.74,401.626C3343.9,402.55 3343.5,405.504 3343.5,405.504C3343.5,405.504 3346.66,406.913 3347.01,406.545C3347.35,406.174 3350.3,405.563 3350.76,405.987C3350.9,406.115 3351.42,406.361 3352.14,406.683C3355.16,405.753 3358.36,407.469 3359.05,408.237C3359.78,409.075 3359.76,410.781 3360.89,411.855C3362.03,412.926 3366.57,417.75 3367.87,418.532C3369.18,419.314 3371.24,422.939 3372.21,423.869C3373.19,424.812 3374.94,427.411 3373.78,428.998C3374.11,426.612 3373.19,427.036 3372.45,425.686C3373.47,428.719 3372.5,433.953 3371.31,436.197C3370.77,437.213 3369.98,438.087 3369.26,438.741C3369.24,438.816 3369.21,438.885 3369.18,438.935C3368.64,439.822 3369.56,442.109 3369.56,442.109L3369.43,442.178C3370.08,443.417 3370.88,444.537 3371.71,445.099C3373.72,446.446 3375.56,447.83 3377.89,449.118C3380.21,450.409 3382.51,452.571 3382.82,454.415C3383.12,456.265 3381.68,457.402 3380.58,458.476C3379.46,459.551 3377.68,460.579 3377.68,460.579C3377.68,460.579 3377.28,462.041 3378.2,462.735C3379.68,462.363 3381.1,462.876 3381.23,464.407C3381.37,465.938 3381.94,467.91 3379.02,472.353C3378.84,473.424 3379.72,473.647 3379.72,473.647C3379.72,473.647 3385.08,474.452 3385.84,476.775C3386.59,479.099 3384.7,480.886 3383.3,481.28C3382.7,484.251 3383.72,485.227 3384.45,486.771C3385.2,488.316 3387.12,490.415 3385.1,495.085C3383.09,499.751 3371.59,501.147 3363.91,500.129C3363.55,500.753 3363.22,501.338 3362.92,501.906C3365.15,502.971 3367.96,504.492 3367.96,504.492C3367.96,504.492 3365.64,511.251 3367.53,512.602C3369.43,513.952 3373.23,515.648 3379.55,514.968C3385.89,514.291 3401.71,513.952 3408.36,515.648C3410.39,516.164 3411.58,516.483 3412.45,516.713C3412.7,516.315 3412.97,515.842 3413.2,515.52C3416.8,510.249 3419.28,504.308 3419.7,501.285C3420.13,498.256 3420.38,492.035 3420.17,490.225C3419.97,488.418 3418.28,485.138 3419.24,479.582C3419.61,477.357 3419.88,475.339 3420.14,473.628C3419.9,473.135 3419.8,472.671 3419.92,472.231L3418.93,471.929C3418.93,471.929 3418.62,472.293 3416.9,471.564C3416.56,471.229 3416.8,470.877 3416.8,470.877C3416.8,470.877 3413.01,469.477 3410.61,466.52C3410.38,466.947 3408.84,466.497 3409.12,463.878C3406.57,460.402 3407.68,454.615 3410.71,451.227C3413.95,448.093 3419.39,447.054 3422.58,449.874C3425.04,449.643 3425.42,451.286 3425.02,451.52C3427.72,454.165 3428.94,458.243 3428.94,458.243C3428.94,458.243 3429.28,457.996 3429.58,458.364C3430.22,460.218 3429.87,460.54 3429.87,460.54L3430.13,461.611C3430.5,461.509 3430.89,461.608 3431.3,461.808C3433.98,459.692 3436.88,457.724 3438.28,458.43C3440.41,459.505 3442.84,464.631 3442.84,464.631C3442.84,464.631 3444.74,464.003 3446.88,465.081C3449.01,466.155 3449.79,471.741 3449.79,471.741C3449.79,471.741 3453.88,471.978 3454.06,473.89C3454.24,475.809 3453.89,478.044 3453.89,478.044C3453.89,478.044 3456.04,478.188 3456.54,482.299C3457.05,486.407 3456.41,488.086 3455.97,489.827C3455.88,490.215 3455.42,490.843 3454.82,491.549C3457.55,495.026 3457.3,496.379 3457.3,496.379C3457.3,496.379 3461.07,500.562 3463.28,502.639C3465.5,504.719 3466.79,507.479 3466.79,507.479C3466.79,507.479 3467.47,507.374 3468.45,508.508C3468.49,508.547 3468.49,508.583 3468.52,508.623C3474.14,505.928 3478.09,503.368 3481.23,500.441C3481.23,500.441 3487.54,491.207 3489.69,489.098C3491.68,487.133 3505.46,476.509 3510.34,471.922C3508.84,469.615 3508.87,469.001 3509.14,468.472C3509.3,468.147 3509.6,467.936 3509.96,467.89C3510.35,467.841 3511.03,468.235 3511.84,468.876C3511.37,467.749 3511.19,466.806 3511.6,466.26C3511.82,465.938 3512.17,465.748 3512.58,465.722C3513.19,465.685 3514.1,466.149 3515.11,466.816L3515.65,466.218C3515.23,465.235 3514.91,464.355 3515,463.786C3515.05,463.349 3515.26,462.988 3515.58,462.768C3516.16,462.363 3517.09,462.646 3518.21,463.352C3519.1,462.36 3520.01,461.325 3520.96,460.25C3520.68,458.736 3520.73,457.533 3521.35,456.974C3521.69,456.679 3522.12,456.564 3522.59,456.649C3522.91,456.708 3523.27,456.892 3523.66,457.168C3528.56,451.543 3533.58,445.638 3536.22,442.148C3541.71,434.903 3546.65,428.495 3549.14,426.435C3551.64,424.375 3559.1,412.627 3560.4,410.919L3561.45,409.512C3562.14,408.237 3562.71,406.943 3562.7,405.392C3562.68,402.352 3562.02,396.779 3562.97,395.757C3563.91,394.739 3565.97,394.052 3568.67,396.74C3569.47,397.538 3569.99,398.777 3570.3,400.184C3573.43,397.009 3577.81,392.028 3578.57,391.279C3579.64,390.224 3588.03,387.395 3588.03,387.395C3588.03,387.395 3596.68,382.095 3597.86,382.959C3599.02,383.833 3597.8,388.068 3595.55,390.93C3593.31,393.789 3589.7,394.604 3589.7,394.604C3589.7,394.604 3589.42,395.629 3587.78,396.674C3586.13,397.719 3583.47,399.441 3583.47,399.441C3583.47,399.441 3580.05,404.107 3579.19,405.727C3583.85,402.405 3588.41,400.433 3589.76,401.028C3591.11,401.616 3593.16,402.313 3594.56,402.53C3595.96,402.747 3599.31,404.409 3601.93,405.122C3604.55,405.829 3606.56,406.292 3606.31,408.162C3606.05,410.032 3602.68,412.263 3599.87,411.829C3603.24,412.884 3606.37,413.978 3606.32,414.96C3606.26,415.943 3606.36,416.649 3604.64,417.832C3602.9,419.015 3600.45,419.242 3597.33,418.992C3604.03,422.926 3604.71,426.32 3603.33,427.552C3601.94,428.791 3598.47,426.422 3596.2,425.765C3594.56,426.81 3589.92,426.248 3588.77,426.833C3587.61,427.417 3585.15,427.644 3585.15,427.644C3585.15,427.644 3583.15,429.244 3581.12,432.064C3579.1,434.883 3575.01,437.614 3571.84,440.403C3568.68,443.193 3560.41,444.054 3560.41,444.054C3560.41,444.054 3556.88,448.02 3555.63,450.8C3554.4,453.587 3546.6,464.88 3546.6,464.88C3546.6,464.88 3541.87,472.645 3537.58,479.799C3539.06,483.492 3540.02,487.047 3538.8,488.141C3538.56,488.352 3538.27,488.437 3537.96,488.464C3537.99,488.671 3538.09,488.937 3538.06,489.104C3538,489.538 3537.79,489.899 3537.47,490.123C3537,490.445 3536.27,490.241 3535.43,489.814C3535.75,490.78 3535.66,491.352 3535.35,491.776C3535.12,492.101 3534.76,492.295 3534.35,492.318C3533.6,492.37 3532.41,491.717 3531.07,490.741C3531.02,490.816 3530.98,490.898 3530.92,490.981C3532.48,493.353 3532.44,493.971 3532.18,494.51C3532.01,494.835 3531.71,495.045 3531.35,495.091C3530.9,495.147 3530.06,494.611 3529.03,493.751C3524.17,500.467 3515.72,510.151 3512.84,513.621C3509.3,517.856 3502.53,527.09 3500.46,528.296C3497.12,531.378 3470.89,541.666 3465.84,543.693C3460.77,545.721 3440.31,556.758 3431.66,558.109C3429.8,558.401 3428.16,558.539 3426.68,558.612C3426.48,559.542 3426.29,560.379 3426.11,561.142C3427.55,563.583 3429.02,566.38 3429.55,572.419C3430.82,586.608 3423.22,591.343 3422.91,596.41C3422.59,601.48 3425.44,610.94 3427.65,616.01C3429.87,621.08 3434.93,627.498 3442.52,636.965C3450.12,646.425 3454.23,657.574 3456.76,663.318C3459.3,669.065 3462.45,681.903 3462.45,681.903C3462.45,681.903 3465.62,686.3 3466.89,687.985C3468.15,689.678 3469.1,693.056 3469.1,693.056C3469.1,693.056 3470.37,694.071 3471.63,695.76C3472.9,697.452 3472.9,700.153 3472.9,700.153C3472.9,700.153 3475.74,701.842 3477.01,702.857C3478.28,703.87 3479.22,708.263 3479.22,708.263C3479.22,708.263 3501.69,729.106 3511.82,738.566C3521.95,748.026 3538.82,778.667 3554.85,801.646C3570.88,824.621 3587.33,883.199 3594.93,901.673L3594.96,901.761L3594.96,886.12C3594.96,882.424 3601.89,879.987 3612.28,878.427C3608.39,875.382 3602.92,870.841 3601.93,868.673C3600.37,865.253 3597.88,856.835 3596.95,850.296C3596.02,843.756 3590.41,824.445 3589.16,820.395C3587.91,816.353 3582.3,767.753 3581.37,764.645C3580.44,761.536 3571.09,713.251 3569.54,699.235C3567.98,685.215 3576.08,644.418 3578.26,637.868C3580.44,631.332 3591.34,609.842 3593.84,602.362C3595.72,596.71 3609.86,587.153 3616.67,582.821C3618.8,580.448 3621.1,578.198 3623.41,576.111C3623.46,576.058 3623.51,576.016 3623.58,575.959C3625.03,574.651 3626.49,573.385 3627.91,572.2C3634.75,566.509 3643.58,551.605 3645.85,545.822C3645.85,545.822 3644.54,544.733 3646.24,538.671C3647.93,532.605 3650.49,514.649 3656.5,503.854C3662.5,493.053 3671.93,481.654 3677.39,479.065C3682.85,476.48 3687.87,473.342 3688.03,472.706L3688.22,474.142C3688.22,474.142 3691.78,471.815 3693.17,471.259L3692.53,472.801C3692.53,472.801 3697.64,470.382 3700.06,470.287L3699.96,471.27C3699.96,471.27 3701.3,470.471 3709.72,473.406C3718.14,476.345 3726.34,482.842 3731.44,488.791C3736.52,494.754 3743.21,504.367 3744.6,509.029C3745.98,513.687 3747.98,520.074 3748.81,520.81C3749.63,521.549 3749.82,523.696 3749.82,523.696L3748,523.717C3748,523.717 3747.51,526.207 3748.14,527.208C3746.96,526.649 3745.54,525.157 3745.54,525.157C3745.54,525.157 3743.44,536.973 3742.14,539.831C3740.85,542.682 3738.99,547.552 3737.82,550.509C3736.66,553.462 3736.11,556.454 3733.54,557.066C3730.95,557.671 3731.22,557.03 3730.16,557.296C3729.11,557.564 3727.41,556.709 3727.48,561.434C3727.51,564.521 3728.65,569.763 3728.51,573.063C3728.36,576.359 3729.38,581.795 3728.55,583.744C3727.74,585.664 3726.99,586.386 3725.42,586.481C3723.87,586.58 3720.31,583.804 3718.43,584.19C3717.6,586.004 3716.82,586.602 3715.6,587.376C3714.38,588.161 3710.06,589.367 3710.06,589.367C3710.06,589.367 3711.21,591.518 3709.17,593.378C3707.12,595.249 3702.78,595.387 3701.28,595.949C3699.78,596.529 3699.83,600.279 3698.1,601.867C3696.38,603.44 3693.55,604.809 3691.11,604.788C3688.69,604.767 3684.51,603.536 3684.51,603.536C3684.51,603.536 3681.1,604.381 3678.84,599.49C3676.47,600.855 3674.88,602.249 3673.78,603.858C3673.91,604.929 3674.05,605.881 3674.19,606.305C3674.61,607.557 3675.03,612.127 3675.86,614.617C3676.69,617.107 3681.25,638.702 3681.67,639.947C3682.09,641.196 3690.39,662.374 3689.56,664.45C3688.73,666.523 3691.63,677.738 3693.29,679.825C3693.83,680.483 3694.35,682.325 3694.83,684.532C3698.25,683.599 3701.72,682.803 3705.16,682.375C3710.31,681.738 3720.33,679.436 3729.17,677.406C3737.76,673.692 3745.2,671.347 3747.73,670.739C3750.44,670.088 3760.87,665.999 3765.09,663.743C3769.31,661.479 3772.41,660.496 3775.22,659.619C3778.01,658.745 3783.1,656.404 3786.94,655.014C3790.8,653.624 3801.48,648.91 3803.87,647.672C3806.24,646.434 3807.89,646.929 3809.04,647.092C3810.19,647.258 3811.44,647.47 3812.94,646.94C3814.45,646.42 3820.13,644.92 3821.84,645.118C3823.56,645.327 3823.79,646.582 3824.83,647.594C3827.27,647.594 3828.58,649.048 3828.58,649.048C3828.58,649.048 3832.42,648.291 3834.88,648.818C3837.35,649.345 3839.16,651.12 3841.66,651.102C3844.18,651.074 3845.3,652.499 3844.93,654.01C3844.54,655.523 3843.08,656.56 3839.87,657.058C3836.64,657.568 3834.23,656.291 3834.23,656.291L3832.46,656.839C3832.65,657.193 3832.81,657.504 3832.9,657.638C3833.19,658.155 3834.61,662.088 3834.59,664.249C3834.58,666.424 3834.22,669.091 3831.23,668.146C3828.22,667.213 3827.72,661.105 3826.86,660.553C3826.31,660.196 3825.56,659.347 3825.04,658.406C3824.58,658.654 3824.09,658.922 3823.59,659.173C3824.55,662.891 3822.64,663.884 3821.73,664.083C3820.74,664.312 3820.17,663.563 3819.79,662.629C3819.52,661.992 3819.1,661.278 3818.56,660.496C3817.73,660.546 3817.14,660.556 3817.14,660.556C3817.14,660.556 3814.82,662.395 3813.4,663.336C3811.98,664.274 3809.26,664.663 3809.26,664.663L3808.73,665.596C3808.73,665.596 3808.45,673.282 3806.76,673.982C3807.78,676.079 3816.94,676.857 3819.5,677.43C3822.09,678 3826.6,681.569 3823.78,685.24C3820.95,688.914 3815.91,686.287 3810.82,685.303C3805.73,684.31 3802.45,685.406 3797.82,684.646C3793.19,683.892 3782.65,678.092 3779.18,677.83C3775.8,678.962 3768.4,685.583 3763.55,688.996C3761.95,690.131 3760.28,691.549 3758.49,693.024C3756.4,694.906 3754.32,696.625 3752.54,697.778C3749.84,699.511 3746.37,701.509 3743.39,703.221C3751.13,704.607 3758.26,705.87 3760.81,706.627C3766.14,708.243 3774.52,705.527 3778.93,705.407C3780.67,705.354 3782.23,705.431 3783.69,705.527C3786.84,704.579 3789.74,703.454 3791.02,703.465C3792.93,703.479 3795.26,703.603 3795.26,703.603C3795.26,703.603 3805.91,701.559 3808.05,700.745C3810.19,699.917 3811.9,698.991 3813.42,699.299C3814.94,699.617 3818.34,701.456 3820.95,701.827C3823.58,702.206 3829.08,702.807 3830.89,703.38C3832.71,703.946 3837.61,703.9 3839.16,704.491C3840.69,705.078 3845.7,708.441 3848.21,709.513C3850.74,710.581 3856.05,710.238 3856.86,712.233C3857.66,714.234 3854.84,717.011 3852.94,717.269C3851.06,717.527 3845.89,715.805 3845.89,715.805L3842.18,715.635C3842.18,715.635 3844.43,716.576 3846.15,717.697C3847.86,718.818 3850.26,720.031 3851.36,720.233C3852.47,720.431 3854.94,720.693 3855.05,722.45C3855.16,724.222 3854.64,726.716 3850.27,726.726C3845.89,726.726 3841.05,723.352 3839.22,722.652C3837.4,721.945 3834.5,721.446 3833.14,721.393C3831.77,721.351 3829.56,721.078 3828.46,720.88C3827.34,720.675 3823.58,719.278 3823.58,719.278L3822.42,720.442C3822.42,720.442 3824.04,722.118 3826.17,723.48C3828.3,724.841 3830.91,727.278 3832.21,728.424C3833.52,729.567 3834.82,730.712 3836.05,732.686C3837.09,734.373 3837.23,735.696 3836.27,736.619L3839.78,736.619C3867.1,736.619 3894.62,725.184 3901.06,650.957C3898.75,643.29 3886.72,642.749 3884.26,642.009C3881.41,641.157 3881.97,636.036 3885.11,636.036L3903.44,637.426L3906.09,622.352L3924.65,622.352L3925.39,620.594L3907.85,614.521C3907.35,614.882 3906.75,615.108 3906.09,615.108C3904.44,615.108 3903.11,613.779 3903.11,612.127C3903.11,610.482 3904.44,609.152 3906.09,609.152C3907.74,609.152 3909.07,610.482 3909.07,612.127C3909.07,612.162 3909.06,612.19 3909.06,612.222L3926.38,618.221L3962.03,533.185L3968.02,536.025L3942.89,595.974L3947.51,596.858L3966.7,622.352L4053.75,622.352L4073.28,313.528L4281.93,316.973L4269.05,390.486C4363.88,448.493 4587.71,423.799 4561.91,538.671C4550.83,588.038 4497.84,608.576 4414.97,622.352L4557.49,622.352C4557.49,622.352 4563.05,624.064 4563.05,630.041L4563.05,775.029C4563.05,781.009 4557.49,782.714 4557.49,782.714L4549.32,782.714C4542.85,784.674 4539.51,791.535 4538.41,801.077C4539.66,873.235 4541.46,1067.93 4541.62,1085.5L4541.78,1085.5C4542.49,1085.5 4542.49,1086.78 4542.49,1086.78L4542.49,1089.78C4542.49,1091.49 4541.07,1092.06 4535.23,1092.06L4524.98,1092.06C4525.02,1093.75 4525.16,1094.93 4525.32,1095.7C4526.89,1094.93 4528.66,1094.5 4530.52,1094.5C4537.2,1094.5 4542.61,1099.92 4542.61,1106.59C4542.61,1113.26 4537.2,1118.68 4530.52,1118.68C4523.85,1118.68 4518.44,1113.26 4518.44,1106.59C4518.44,1106.27 4518.46,1105.95 4518.49,1105.63C4512.96,1101 4512.15,1098.12 4512.15,1095.33L4512.15,1091.89C4509.62,1091.64 4508.87,1091 4508.87,1089.78L4508.87,1086.78C4508.87,1086.78 4508.87,1085.5 4509.58,1085.5L4509.7,1085.5L4472.91,808.586C4467.18,791.213 4455.81,784.716 4444.3,782.714L4183.32,782.714C4169.47,782.714 4161.69,805.831 4156.38,805.831L4124.39,805.831L4037.5,1028.12L4037.5,1067.3L4038.99,1067.3C4040.28,1067.3 4040.28,1068.02 4040.28,1069.16L4040.28,1071.87C4040.28,1073.01 4040.28,1073.71 4038.99,1073.71L4028.03,1073.71L4028.03,1087.4L3992.13,1087.4L3992.13,1082.55L3990.41,1082.55L3990.41,1074.71C3970.85,1074.88 3968.63,1077.85 3960.51,1077.85L3955.66,1077.85C3952.53,1077.85 3949.11,1076.85 3949.54,1073.29C3949.97,1069.72 3964.35,1067.59 3973.18,1067.59L3990.41,1067.59L3990.41,1066.3C3990.41,1060.89 3996.69,1057.19 4002.67,1057.19L4002.67,830.047L3997.54,830.047L3997.54,824.64L3964.31,824.64L3934.37,1049.95C3939.56,1050.15 3947.28,1049.57 3953.27,1045.99C3961.01,1041.37 3966.4,1046.79 3966.4,1046.79C3966.4,1046.79 3969.18,1047.43 3969.79,1048.51C3970.41,1049.58 3968.86,1051.13 3964.52,1055.91C3956.58,1063.68 3941.19,1070.93 3931.03,1075.09L3929.64,1085.5L3929.76,1085.5C3930.48,1085.5 3930.48,1086.78 3930.48,1086.78L3930.48,1089.78C3930.48,1091 3929.74,1091.64 3927.2,1091.89L3927.2,1095.33C3927.2,1098.12 3926.39,1101 3920.87,1105.64C3920.88,1105.95 3920.91,1106.27 3920.91,1106.59C3920.91,1113.26 3915.5,1118.68 3908.82,1118.68C3902.14,1118.68 3896.74,1113.26 3896.74,1106.59C3896.74,1099.92 3902.14,1094.5 3908.82,1094.5C3910.69,1094.5 3912.46,1094.93 3914.04,1095.7C3914.18,1094.93 3914.33,1093.75 3914.36,1092.06L3904.12,1092.06C3901.24,1092.06 3899.43,1091.92 3898.34,1091.57C3888.63,1095.49 3869.7,1103.1 3867.41,1103.67C3864.32,1104.43 3862.64,1101.65 3862.64,1101.65C3862.64,1101.65 3860.78,1098.4 3860.33,1096.24C3859.87,1094.07 3859.71,1094.38 3860.03,1091.46C3856.18,1086.81 3853.75,1073.99 3854.07,1069.5C3854.39,1065.03 3857.95,1064.88 3857.95,1064.88C3857.95,1064.88 3858.03,1062.81 3858.33,1059.86C3856.03,1060.52 3854.4,1060.95 3854.1,1060.92C3852.72,1060.8 3848.76,1058.61 3848.76,1058.61L3841.51,1024.42L3815.09,1023.27C3810.37,1032.58 3809.73,1041.23 3810.58,1047.34C3817.56,1062.01 3815.82,1085.3 3815.82,1085.3C3815.82,1085.3 3818.82,1090.72 3819.31,1093.68C3820.56,1094.42 3823.05,1097.62 3824.8,1100.09C3833.78,1101.08 3837.77,1106.5 3838.52,1109.95C3839.52,1110.93 3839.27,1115.62 3836.53,1116.11C3833.78,1116.61 3821.81,1116.61 3815.07,1116.36C3808.33,1116.11 3792.37,1104.28 3785.38,1099.35C3778.39,1094.42 3768.41,1073.71 3768.41,1073.71C3768.41,1073.71 3762.67,1076.18 3760.19,1072.97C3760.03,1072.78 3759.82,1072.53 3759.58,1072.2L3759.58,1116.3L3746.81,1116.3L3743.05,1051.18C3741.07,1048.64 3739.47,1046.61 3738.72,1045.61C3735.73,1041.66 3737.97,1040.68 3737.97,1040.68C3737.97,1040.68 3740.16,1038.07 3742.18,1036.11L3737.33,951.841L3618.31,951.841L3617.08,973.165ZM3263.47,423.077C3263.43,423.08 3263.39,423.083 3263.36,423.093C3263.13,423.211 3262.91,423.333 3262.69,423.458C3262.94,423.333 3263.18,423.225 3263.41,423.116L3263.47,423.077ZM3294.96,396.99C3295.47,396.579 3295.86,396.277 3296.03,396.172C3296.24,396.056 3296.49,395.978 3296.77,395.909C3295.77,395.675 3295.13,395.419 3295.13,395.419C3295.13,395.419 3297.57,395.475 3299.68,395.472L3300.09,395.373C3301.79,394.91 3304.2,395.182 3304.2,395.182L3300.83,393.756C3300.83,393.756 3304.71,393.993 3307.18,394.667C3308.47,395.028 3310.26,395.156 3312.05,395.435C3308.03,392.728 3303.81,391.545 3298.16,393.809C3295.3,394.962 3293.35,396.411 3292.01,397.745C3292.76,397.506 3293.78,397.223 3294.96,396.99ZM3284.25,407.978C3284.25,407.968 3284.25,407.965 3284.26,407.965C3283.4,407.176 3282.29,406.476 3280.89,406.013C3281.13,406.371 3281.41,406.769 3281.67,407.193C3282.61,407.4 3283.49,407.659 3284.25,407.978ZM3293.72,398.008C3292.97,397.897 3292.3,397.929 3291.77,397.989C3289.88,399.983 3289.39,401.675 3289.39,401.675C3289.39,401.675 3291.78,399.612 3293.72,398.008ZM3931.83,622.352L3959.88,622.352L3943.8,600.703L3941.3,599.752L3931.83,622.352ZM3261.73,461.525C3261.72,461.292 3261.71,461.059 3261.72,460.819C3261.69,460.793 3261.67,460.783 3261.66,460.793C3261.59,460.826 3261.62,461.088 3261.73,461.525ZM3534.1,485.624C3533.99,485.818 3533.89,486.002 3533.78,486.19C3534.66,486.988 3535.37,487.55 3535.88,487.892C3535.8,487.675 3535.69,487.448 3535.56,487.179C3535.1,486.738 3534.61,486.232 3534.1,485.624ZM3324.08,399.326C3323.92,399.359 3323.75,399.474 3323.58,399.628C3325.04,400.381 3325.74,399.957 3325.74,399.957C3325.74,399.957 3324.83,399.198 3324.08,399.326ZM3276.02,404.676L3276.02,404.968C3276.82,404.794 3278.35,404.587 3280.06,404.929C3280.07,404.906 3280.07,404.876 3280.08,404.853C3277.78,404.337 3276.61,404.449 3276.02,404.676ZM3532.11,489.045C3532.63,489.436 3533.05,489.706 3533.4,489.909C3533.2,489.492 3532.92,488.986 3532.52,488.339L3532.11,489.045ZM3280.51,406.762C3280.51,406.834 3280.5,406.903 3280.49,406.969L3280.75,407.015C3280.67,406.93 3280.59,406.844 3280.51,406.762ZM4034.08,1067.3L4034.08,1036.85L4025.96,1057.63C4026.95,1057.85 4028.03,1058.7 4028.03,1061.47L4028.03,1067.3L4034.08,1067.3ZM3273.63,407.853C3273.42,408.408 3273.21,409.033 3273,409.69C3273.37,409.309 3273.78,409.023 3274.19,408.799C3274.47,408.392 3274.77,408.004 3275.09,407.643C3274.53,407.718 3274.04,407.8 3273.66,407.846L3273.63,407.853ZM4034.08,1027.46L4034.08,849.995L4020.34,849.995L4020.34,1057.47L4022.3,1057.62L4034.08,1027.46ZM3282.94,410.232C3282.99,410.488 3283.04,410.751 3283.06,411.017L3283.72,411.086L3283.74,410.994C3283.51,410.735 3283.25,410.475 3282.94,410.232ZM3283.87,409.897C3283.91,409.693 3283.94,409.476 3283.99,409.233C3283.46,408.717 3282.84,408.336 3282.16,408.053C3282.33,408.372 3282.46,408.701 3282.6,409.036C3283.07,409.273 3283.5,409.552 3283.87,409.897ZM3280.9,405.05L3280.79,405.024C3280.77,405.05 3280.77,405.076 3280.77,405.099C3281.99,405.454 3283.26,406.121 3284.42,407.291C3284.49,407.032 3284.57,406.762 3284.65,406.486C3284.08,406.085 3282.98,405.602 3280.9,405.05ZM4066.73,814.379L4064.87,814.379C4065.78,820.123 4068.06,826.139 4070.01,827.246C4070.32,827.427 4070.5,827.377 4070.64,827.306C4071.35,826.921 4070.03,823.83 4069.16,821.778C4068.16,819.444 4067.01,816.777 4066.73,814.379ZM4034.08,842.016L4034.08,821.761C4032.3,823.207 4030.55,824.579 4028.88,825.853L4028.88,826.351L4028.24,826.351C4026.41,827.741 4024.72,829.004 4023.19,830.086L4023.19,842.016L4034.08,842.016ZM3597.03,906.955C3599.14,912.403 3601.68,919.327 3604.27,927.027L3614.83,927.165L3621.44,915.468L3616.82,907.295L3601.51,907.295C3599.66,907.295 3598.14,907.231 3597.03,906.955ZM3625.43,928.788L3628.97,928.788L3627.2,925.665L3625.43,928.788ZM3726.66,928.788L3730.19,928.788L3728.43,925.665L3726.66,928.788ZM3654.14,875.746C3654.06,875.792 3653.97,875.845 3653.87,875.884L3654.45,875.884C3654.35,875.845 3654.25,875.792 3654.14,875.746ZM3640.49,928.788L3715.13,928.788L3722.66,915.468L3718.05,907.295L3691.22,907.295C3690.05,913.65 3684.5,918.457 3677.81,918.457C3671.13,918.457 3665.59,913.65 3664.42,907.295L3637.59,907.295L3632.96,915.468L3640.49,928.788ZM4034.08,809.254L4034.08,805.831L4028.88,805.831L4028.88,823.677C4030.56,822.376 4032.3,820.997 4034.08,819.539L4034.08,814.379L4031.45,814.379L4031.45,809.254L4034.08,809.254ZM4037.5,814.379L4037.5,816.706C4038.41,815.939 4039.32,815.164 4040.22,814.379L4037.5,814.379ZM4023.19,826.351L4023.19,827.971C4023.88,827.465 4024.62,826.921 4025.39,826.351L4023.19,826.351ZM3759.58,1021.57C3762.35,1019.96 3765.57,1018.45 3769.25,1017.29C3768.87,1015.08 3771.94,1004.61 3772.65,1002.84C3773.41,1001 3775.64,996.185 3775.64,994.707C3775.64,993.229 3777.14,989.165 3777.14,986.201C3777.14,983.248 3781.64,971.785 3782.39,969.185C3783.13,966.603 3791.74,935.543 3793.62,928.526C3794.22,923.596 3798.37,921.527 3798.37,921.527L3791.72,911.557L3798.37,904.08C3798.37,904.08 3797.72,902.619 3797.54,900.32C3797.44,900.359 3797.31,900.433 3797.22,900.447C3795.36,900.755 3783.83,899.199 3781.34,897.947C3778.84,896.709 3771.06,890.17 3767.94,887.68C3765.81,885.971 3763.09,885.313 3760.38,885.052C3760.51,885.402 3760.67,885.745 3760.67,886.12L3760.67,904.805C3760.67,906.987 3758.17,907.295 3754.12,907.295L3738.82,907.295L3734.19,915.468L3740.81,927.165L3759.58,926.92L3759.58,1021.57ZM3274.6,410.929C3275.11,410.751 3276.02,410.685 3277.08,410.682C3276.83,410.232 3276.6,409.677 3276.4,409.075C3275.85,409.194 3275.29,409.355 3274.78,409.565C3274.48,410.087 3274.22,410.649 3274.01,411.231C3274.24,411.086 3274.45,410.981 3274.6,410.929ZM3279.84,406.131C3279.7,406.003 3279.55,405.881 3279.38,405.747C3279.14,405.757 3278.81,405.773 3278.44,405.783C3278.02,406.033 3277.59,406.335 3277.17,406.69C3278.03,406.696 3278.93,406.759 3279.81,406.871C3279.81,406.631 3279.83,406.381 3279.84,406.131ZM3370.65,427.894C3370.61,429.678 3370.27,431.298 3369.8,432.688C3369.82,433.312 3369.82,434.022 3369.78,434.745C3370.88,432.386 3371.4,429.747 3370.65,427.894ZM3369.52,430.782C3369.71,427.664 3368.31,424.818 3368.31,424.818C3368.31,424.818 3368.55,426.737 3368.39,428.64C3368.91,429.511 3369.31,430.247 3369.52,430.782ZM3261.26,465.14C3260.85,462.797 3260.32,459.094 3260.01,458.686C3259.91,458.562 3259.82,458.256 3259.7,457.845C3259.74,460.375 3260.48,462.965 3261.26,465.14ZM3272.7,412.207C3272.8,411.629 3272.98,411.04 3273.25,410.452C3273.02,410.649 3272.79,410.863 3272.59,411.096C3272.46,411.606 3272.34,412.105 3272.26,412.575L3272.7,412.207ZM4037.5,1018.72L4120.72,805.831L4077.03,805.831L4077.03,814.379L4068.45,814.379C4068.74,816.473 4069.8,818.949 4070.73,821.106C4072.24,824.632 4073.54,827.667 4071.46,828.809C4070.96,829.085 4070.15,829.287 4069.16,828.735C4066.5,827.214 4064.06,820.441 4063.15,814.379L4042.85,814.379C4041.08,815.935 4039.28,817.467 4037.5,818.949L4037.5,842.016L4043.42,842.016L4043.42,849.995L4037.5,849.995L4037.5,1018.72ZM3777.86,724.863C3772.8,726.681 3763.96,730.422 3758.44,731.377C3752.91,732.332 3744.83,733.089 3741.75,733.627C3738.68,734.157 3729.69,735.08 3726.05,736.018C3722.42,736.966 3710.6,738.058 3710.6,738.058C3706.23,738.242 3702.75,737.825 3699.6,737.259C3700.4,740.891 3701.01,743.495 3701.3,744.393C3702.85,749.373 3710.64,761.843 3710.95,763.4C3711.26,764.952 3711.58,771.803 3711.58,771.803C3711.58,771.803 3713.13,771.803 3713.75,772.74C3714.37,773.678 3717.8,781.147 3717.8,781.147C3717.8,781.147 3726.21,785.197 3727.46,786.75C3728.7,788.313 3729.63,791.425 3732.75,793.303C3735.51,794.952 3736.5,797.523 3736.71,799.185C3741.71,800.681 3748.5,802.75 3749.88,802.952C3752.05,803.263 3762.96,809.184 3767.01,810.74C3771.06,812.296 3786.95,817.905 3799.41,818.531C3811.86,819.15 3844.88,828.19 3850.49,835.968C3851.64,837.57 3852.56,839.632 3853.31,841.885C3863.3,849.535 3860.98,858.278 3861.1,863.498C3861.23,869.14 3862.77,873.027 3867.38,884.613C3869.37,889.6 3878.75,917.976 3878.75,917.976L3879.69,923.14C3879.69,923.14 3880.56,923.674 3883.2,930.383C3885.85,937.096 3892.69,953.864 3892.69,953.864L3898.87,969.005C3899.29,928.509 3899.78,884.344 3900.25,848.329C3898.17,828.88 3888.91,829.757 3888.91,829.757L3869.94,829.757C3865.39,829.757 3866.15,824.07 3866.15,824.07L3866.15,814.963C3866.15,810.991 3864.13,807.744 3861.44,805.831L3809.18,805.831C3804.76,805.831 3799.07,807.263 3799.07,798.715L3799.07,743.746C3799.07,735.197 3804.76,736.619 3809.18,736.619L3830.75,736.619C3830.26,736.417 3829.83,736.184 3829.55,735.965C3828.4,735.088 3826.04,732.226 3824.65,731.908C3823.26,731.586 3820.3,730.002 3818.89,729.404C3817.5,728.806 3815.93,727.823 3815.93,727.823C3815.93,727.823 3813.06,727.869 3811.83,727.809C3810.6,727.749 3808.81,727.593 3808.81,727.593C3808.81,727.593 3806.7,728.82 3805.89,728.88C3805.07,728.923 3803.43,728.753 3802.22,729.107C3801.01,729.457 3796.54,730.154 3794.51,730.281C3792.53,730.401 3784.73,725.312 3784.28,725.004C3782.67,724.364 3780.41,723.943 3777.86,724.863ZM3290.46,474.074C3289.93,471.787 3289.49,470.059 3288.13,470.414C3287.32,470.627 3285.92,470.634 3284.28,470.48C3284.96,472.257 3286.16,473.664 3286.16,473.664C3286.16,473.664 3284.67,473.184 3282.79,470.302C3281.82,470.164 3280.81,469.98 3279.83,469.757C3282.35,474.666 3286.94,474.488 3290.46,474.074ZM3276.06,407.791C3275.93,407.938 3275.8,408.09 3275.67,408.251C3275.84,408.214 3275.99,408.188 3276.15,408.162C3276.12,408.044 3276.09,407.912 3276.06,407.791ZM3513.54,468.13C3513.58,468.222 3513.62,468.304 3513.67,468.409C3513.71,468.367 3513.75,468.321 3513.8,468.278L3513.54,468.13ZM3460.7,511.744C3459.78,511.084 3458.54,510.069 3457.47,508.688C3455.59,506.273 3451.77,502.146 3451.77,502.146C3451.77,502.146 3450.81,502.314 3448.49,500.421C3448.35,501.275 3448.06,502.163 3447.49,502.8C3445.98,504.466 3442.72,507.032 3441.4,509.687C3440.08,512.346 3435.96,517.462 3435.11,519.092L3434.81,519.746C3437.71,519.052 3441.73,517.974 3444.53,516.884C3447.81,515.605 3454.7,513.755 3460.7,511.744ZM3279.83,407.485C3278.68,407.354 3277.53,407.39 3276.5,407.485C3276.57,407.682 3276.65,407.892 3276.74,408.096C3276.76,408.09 3276.8,408.086 3276.83,408.086C3277.49,408.044 3278.65,408.044 3279.89,408.237C3279.86,407.984 3279.84,407.735 3279.83,407.485ZM3353.92,407.406C3353.9,407.406 3353.9,407.406 3353.88,407.413C3355.41,408.03 3357.22,408.73 3358.66,409.266C3358.2,407.883 3355.91,407.13 3353.92,407.406ZM3281.94,408.757C3281.8,408.444 3281.61,408.122 3281.37,407.781C3281.07,407.702 3280.77,407.63 3280.47,407.577C3280.46,407.846 3280.47,408.106 3280.49,408.349C3280.98,408.451 3281.46,408.586 3281.94,408.757ZM3275.44,405.113C3275.44,405.113 3275.56,405.076 3275.78,405.024L3275.78,404.784C3275.5,404.952 3275.44,405.113 3275.44,405.113ZM3277.28,405.826L3276.09,405.865C3276.12,406.095 3276.17,406.328 3276.22,406.558C3276.57,406.272 3276.92,406.026 3277.28,405.826ZM4037.5,805.831L4037.5,809.254L4045.12,809.254L4048.28,805.831L4037.5,805.831ZM3275.8,405.875L3274.37,405.924C3274.37,405.924 3274.2,406.345 3273.94,407.005C3274.51,406.864 3275.17,406.772 3275.87,406.729C3275.85,406.44 3275.81,406.151 3275.8,405.875ZM3282.26,409.756C3282.18,409.713 3282.12,409.667 3282.04,409.624C3281.62,409.401 3281.13,409.22 3280.59,409.095C3280.72,409.815 3280.95,410.39 3281.23,410.86L3282.31,410.948C3282.35,410.584 3282.35,410.186 3282.26,409.756ZM3278.41,410.705C3279.1,410.722 3279.79,410.761 3280.44,410.807C3280.28,410.245 3280.11,409.631 3280,408.983C3279.12,408.845 3278.13,408.829 3277.17,408.954C3277.51,409.575 3277.94,410.17 3278.41,410.705ZM3537.5,486.282C3537.48,485.503 3537.1,484.001 3536.33,481.888C3536.06,482.339 3535.79,482.799 3535.52,483.236C3536.13,484.179 3536.65,485.086 3537.07,485.93C3537.23,486.068 3537.38,486.196 3537.5,486.282ZM4374.37,270.305C4376.73,265.991 4384.65,258.422 4404.37,269.2L4404.04,268.933C4404.04,268.933 4570.35,361.581 4571.09,360.216C4571.84,358.852 4572.28,358.899 4572.28,358.899L4573.64,359.65C4574.22,359.961 4574.43,361.294 4574.43,361.294L4584.55,366.823C4585.99,367.613 4586.09,368.781 4586.09,368.781L4594.86,373.575L4594.77,373.74C4603.36,378.486 4614.85,384.727 4627.51,391.546C4638.85,367.94 4664.98,329.602 4670.84,332.548C4672.25,333.26 4671.26,337.353 4668.78,343.287C4667.69,351.058 4668.97,363.531 4687.19,380.055C4707.63,398.597 4763.03,436.352 4783.85,450.359C4785.48,449.821 4787.36,449.156 4789.25,448.275C4792.1,446.95 4793.84,445.22 4793.96,443.828C4794.08,442.432 4794.09,439.242 4794.56,438.031C4795.01,436.812 4797.11,436.407 4797.98,434.386C4798.86,432.357 4802.45,429.234 4804.21,426.623C4805.95,424.024 4811.18,422.88 4811.18,422.88C4811.18,422.88 4811.29,422.066 4811.99,421.543C4812.68,421.027 4818.84,419.765 4821.62,420.005C4824.4,420.241 4837.27,419.749 4843,422.777C4848.74,425.805 4865.36,431.995 4872.36,441.751C4879.35,451.512 4881.46,466.069 4877.78,477.717C4874.1,489.361 4867.6,495.087 4864.8,496.88C4863.58,497.663 4861.58,498.893 4859.51,500.156C4860.29,500.517 4863.01,501.78 4864.1,502.326C4865.36,502.963 4865.95,504.127 4865.95,504.127L4870.81,506.864C4870.81,506.864 4871.53,508.249 4872.37,508.669C4882.22,513.62 4904.15,530.892 4893.85,551.391C4883.53,571.895 4859.9,557.982 4850.64,551.871C4849.73,552.323 4839.92,545.666 4834.57,541.769C4833.85,544.624 4833.42,546.952 4833.59,548.017L4833.43,547.931C4834.35,551.58 4834.06,554.321 4833.19,558.175C4833.19,558.175 4831.02,577.392 4830.75,578.749C4830.48,580.106 4825.88,591.471 4824.25,597.428C4822.63,603.382 4809.36,617.731 4808.56,619.894C4807.74,622.065 4801.51,626.119 4800.16,627.747C4798.81,629.371 4795.56,632.895 4793.66,635.329C4791.77,637.767 4787.44,638.848 4785.27,640.205C4783.11,641.558 4773.09,653.194 4773.09,653.194C4773.09,653.194 4764.97,653.465 4763.61,654.275C4762.26,655.093 4753.76,660.516 4753.6,661.857C4753.26,664.755 4749.42,669.014 4747.72,669.871C4746.01,670.717 4737.92,674.126 4737.92,674.126C4737.92,674.126 4741.75,677.964 4740.9,682.227C4740.05,686.49 4732.8,684.358 4732.8,684.358C4732.8,684.358 4737.49,696.718 4736.64,700.556C4735.78,704.39 4731.95,711.634 4731.95,711.634C4731.95,711.634 4724.27,715.472 4724.7,717.178C4725.13,718.877 4728.11,724.422 4728.11,724.422C4728.11,724.422 4715.32,775.567 4715.75,779.83C4716.18,784.089 4713.34,788.493 4710.36,793.613C4707.37,798.725 4703.11,801.281 4701.4,801.281C4700.9,801.281 4697.94,800.381 4694.06,799.154C4692.53,802.044 4691.15,804.282 4690.18,804.978C4687.19,807.109 4684.63,807.962 4684.63,807.962C4684.63,807.962 4682.51,819.469 4679.1,821.172C4675.69,822.878 4672.42,831.4 4672.42,831.4C4672.42,831.4 4666.59,839.925 4666.17,845.041C4665.74,850.153 4657.78,865.923 4657.78,865.923C4657.78,865.923 4661.2,868.483 4661.2,871.892C4661.2,875.305 4660.77,887.236 4659.49,890.646C4658.53,893.19 4656.63,896.926 4655.73,898.656C4662.4,899.482 4667.24,899.749 4669.3,903.859C4671.85,908.975 4685.49,925.168 4690.6,934.547C4695.72,943.922 4694.01,956.71 4704.24,965.232C4714.47,973.761 4711.06,989.951 4715.32,989.951C4719.59,989.951 4731.52,1008.71 4731.52,1008.71L4740.9,1027.46C4740.9,1027.46 4744.31,1027.46 4746.44,1030.87C4748.57,1034.28 4749.42,1041.1 4751.56,1043.66C4753.69,1046.21 4758.37,1053.46 4757.09,1057.29L4757.09,1070.08C4757.09,1070.08 4758.37,1068.38 4758.8,1073.07C4759.14,1076.79 4758.62,1080.77 4755.21,1083.96C4755.28,1089.23 4754.82,1094.23 4754.82,1094.23C4754.82,1094.23 4756.82,1094.23 4757.09,1097.08C4757.38,1099.92 4758.52,1105.03 4754.54,1108.72C4750.55,1112.41 4746.87,1112.7 4742.89,1113.27C4738.91,1113.84 4729.82,1114.69 4726.98,1114.13C4724.13,1113.56 4718.74,1110.15 4716.75,1111.29C4714.76,1112.41 4701.12,1117.54 4689.47,1118.1C4677.82,1118.67 4649.4,1119.52 4642.02,1116.68C4634.62,1113.84 4630.65,1111 4630.37,1108.44C4630.08,1105.88 4630.65,1100.2 4632.92,1099.07C4635.2,1097.93 4652.53,1097.64 4654.23,1097.64C4655.94,1097.64 4664.47,1093.1 4667.3,1091.67C4669.64,1090.51 4674.61,1089.31 4677.6,1086.1C4677.4,1086.05 4677.22,1085.98 4677.04,1085.91C4667.45,1085.59 4656.45,1084.03 4650.54,1081.16C4640.6,1076.34 4638.89,1074.91 4638.89,1072.64C4638.89,1070.37 4641.46,1067.52 4641.46,1067.52C4641.46,1067.52 4642.02,1064.11 4644.57,1062.69C4647.13,1061.27 4660.2,1062.98 4662.48,1062.98C4663.8,1062.98 4669.31,1063.74 4675.27,1062.82C4671.88,1059.72 4667.75,1055.94 4665.89,1054.31C4662.48,1051.33 4647.13,1044.51 4646.28,1042.38C4645.43,1040.25 4624.97,998.477 4622.83,993.789C4620.7,989.102 4601.53,955.432 4599.4,949.892C4597.26,944.347 4586.18,923.47 4586.18,920.056C4586.18,916.647 4584.91,862.942 4586.18,855.698C4587.46,848.447 4590.44,810.943 4590.02,807.534C4589.69,804.958 4588.41,773.731 4590.91,756.373C4589.96,755.72 4589.32,755.268 4589.16,755.107C4587.03,752.975 4586.61,747.014 4586.61,744.029C4586.61,741.04 4594.71,717.178 4594.71,713.769C4594.71,710.36 4597.26,693.309 4599.4,684.787C4601.53,676.262 4606.22,658.357 4606.22,658.357C4609.73,651.59 4627.18,620.98 4629.88,617.193C4631.6,614.79 4643.95,599.371 4654.7,586.587C4652.35,581.183 4653.71,577.935 4653.71,577.935C4653.71,577.935 4655.7,571.223 4657.28,566.543C4646.09,563.24 4630.7,558.603 4627.18,557.093C4621.49,554.655 4607.41,550.322 4604.7,548.702C4602,547.073 4599.84,543.825 4599.29,542.476C4598.75,541.124 4595.51,533.271 4594.96,531.918C4594.42,530.561 4590.08,518.375 4589.55,517.026C4589,515.673 4580.07,496.184 4578.99,490.23C4577.9,484.269 4570.32,456.927 4570.32,456.927C4570.32,456.927 4567.62,455.302 4566.54,453.14C4565.45,450.973 4565.18,443.662 4564.64,440.147C4564.29,437.842 4567.74,434.052 4570.34,431.468C4568.14,428.145 4565.55,424.806 4564.64,423.902C4563.29,422.549 4558.96,417.948 4557.6,415.51C4556.25,413.076 4550.57,408.743 4549.48,406.843C4548.4,404.952 4544.07,400.351 4542.17,397.917C4540.27,395.474 4539.26,392.285 4539.46,390.063C4539.78,386.796 4541.61,387.378 4543.11,388.459C4541.85,387 4540.53,384.755 4540.82,381.943C4540.93,380.889 4542.02,379.792 4543.21,378.872C4503.68,356.697 4389.52,295.516 4389.52,295.516C4371.12,285.469 4371.07,276.342 4374.37,270.305ZM4600.91,423.902C4601.45,424.716 4602,431.484 4602,431.484C4602,431.484 4604.7,436.085 4605.78,438.519C4606.88,440.957 4612.29,457.198 4612.29,458.826C4612.29,460.45 4617.7,463.155 4617.7,463.155C4617.7,463.155 4619.05,468.57 4620.14,469.923C4621.22,471.276 4624.74,475.338 4626.09,476.416C4627.44,477.505 4631.78,488.06 4633.13,490.502C4634.49,492.932 4639.08,498.347 4641.25,499.161C4643.41,499.967 4645.85,503.49 4647.21,504.304C4648.57,505.118 4652.08,505.925 4652.9,505.657C4653.71,505.39 4659.39,504.029 4663.18,504.304C4666.97,504.576 4675.9,504.304 4678.88,504.847C4680.17,505.083 4680.96,505.315 4681.76,505.523L4683.75,501.324L4685.38,494.426C4685.38,494.426 4690.25,490.769 4690.25,488.736C4690.25,486.707 4696.74,482.24 4697.97,481.831C4698.23,481.74 4699.15,482.055 4700.41,482.574C4700.74,482.133 4701.09,481.673 4701.32,481.41C4704,478.398 4703.37,475.322 4705.92,472.55C4706.52,471.897 4707.11,470.753 4707.67,469.392L4705.85,468.452C4705.85,468.452 4705.05,468.625 4704.35,468.272C4704.2,468.197 4704.3,467.65 4704.51,466.919C4681.85,454.26 4625.76,422.982 4593.02,405.211C4593.6,407.901 4594.13,410.496 4594.42,412.533C4594.85,415.506 4594.98,418.082 4595.16,420.154C4595.28,420.143 4595.42,420.115 4595.51,420.115C4598.21,420.115 4600.37,423.088 4600.91,423.902ZM4728.15,504.304C4730.31,503.219 4741.95,501.324 4746.29,501.324C4750.62,501.324 4764.97,504.029 4770.1,506.196C4773.89,507.789 4779.53,511.253 4782.28,512.999C4782.59,511.151 4782.56,509.786 4782.56,509.786C4782.56,509.786 4776.19,505.999 4774.79,505.299C4774.38,505.095 4773.96,504.749 4773.53,504.352L4756.3,494.835L4755.08,494.957L4741.36,487.678C4740.09,487.965 4738.69,488.28 4737.49,488.575C4734.18,489.373 4729.14,488.433 4726.94,487.324C4724.74,486.219 4725.73,486.86 4724.16,488.535C4722.96,489.817 4720.19,493.891 4718.94,496.62C4718.99,496.703 4719.03,496.774 4719.08,496.86C4721.93,501.324 4719.08,501.324 4719.08,502.956C4719.08,503.561 4717.95,505.696 4716.36,508.555C4717.11,508.198 4718.01,507.82 4719.22,507.82C4721.65,507.82 4725.98,505.39 4728.15,504.304ZM4592.16,378.502L4591.95,378.895L4583.57,374.314L4582.12,376.398L4581.48,376.552L4581.42,376.646C4582.6,377.488 4583.88,378.561 4584.94,379.776C4586.84,381.943 4590.36,388.172 4590.63,392.498C4590.72,393.913 4591.08,395.958 4591.53,398.231C4623.16,415.797 4683.28,448.138 4707.31,461.036C4707.99,460.053 4708.66,459.412 4709.13,459.644C4709.94,460.053 4709.77,460.69 4709.77,460.69L4710.31,461.004C4710.86,458.912 4711.29,457.162 4711.53,456.498C4712.24,454.528 4717.05,453.615 4717.81,452.974C4718.21,452.632 4719.72,451.677 4721.03,450.859C4720.46,450.414 4720.33,449.97 4720.77,449.101L4720.89,448.857C4716.28,446.309 4672.22,421.94 4633.93,401.055C4633.82,401.114 4633.72,401.188 4633.61,401.247C4628.9,406.882 4625.07,410.154 4623.18,409.203C4621.23,408.227 4622.37,403.276 4625.32,396.363C4612.55,389.419 4600.92,383.138 4592.16,378.502ZM4762.14,484.277C4762.32,482.483 4764.82,479.534 4764.82,479.534C4764.82,479.534 4764.8,478.755 4764.93,477.698L4762.11,476.278C4757.82,474.123 4758.29,470.875 4758.58,470.297L4758.88,469.719L4756.34,468.445C4755.76,469.007 4755.27,469.455 4755.11,469.703C4754.53,470.576 4752.14,472.719 4751.15,472.656C4750.65,472.625 4750.12,472.279 4749.72,471.948L4749.26,472.983C4750.97,473.793 4754.87,475.704 4755.91,476.789C4757.23,478.177 4756.35,480.788 4756.17,481.717C4756,482.641 4755.83,483.282 4754.19,484.78C4753.89,485.063 4753.37,485.295 4752.78,485.507L4758.81,488.988L4759.21,489.629L4763.27,491.74C4762.48,489.003 4762.02,485.555 4762.14,484.277ZM4392.74,289.625C4392.74,289.625 4506.74,353.138 4546.35,374.192C4546.29,372.977 4546.24,371.53 4546.24,370.307C4546.24,367.594 4551.38,367.594 4551.38,367.594C4551.38,367.594 4551.1,364.345 4551.38,363.264C4551.64,362.179 4552.46,360.558 4555.44,361.093C4555.89,361.18 4556.65,361.549 4557.57,362.08L4558.3,360.315C4522.91,340.251 4400.82,274.824 4400.82,274.824C4398.38,273.487 4396.16,272.476 4394.13,271.737L4393.23,272.165C4393.23,272.165 4393.77,272.37 4393.86,273.07C4393.94,273.766 4392.44,273.793 4392.44,273.793C4392.44,273.793 4400.81,278.261 4400.51,278.658C4400.2,279.055 4399.47,279.688 4399.3,279.499C4399.12,279.303 4392.14,275.862 4391.13,275.5C4390.12,275.126 4388.67,274.529 4388.51,274.151C4388.33,273.782 4388.72,273.251 4388.72,273.251C4388.72,273.251 4388.08,273.554 4387.73,273.176C4387.38,272.795 4387.25,272.346 4387.25,272.346C4387.25,272.346 4386.74,273.101 4386.49,272.869C4386.25,272.641 4385.94,272.189 4385.94,272.189L4385.19,272.531L4385.32,270.927L4386.01,271.025C4386.01,271.025 4385.84,270.585 4386.27,270.183C4383.1,270.258 4381.01,271.473 4379.98,273.365C4377.8,277.352 4378.66,281.926 4392.74,289.625ZM4758.51,453.136C4758.98,453.608 4759.2,454.551 4759.41,455.554C4761.05,455.995 4763.5,456.584 4764.65,456.51C4766.44,456.4 4769,455.939 4769.81,457.218C4770.61,458.499 4770.26,460.057 4771.31,460.875C4772.01,461.421 4773.85,462.161 4775.46,463.557C4775.66,463.423 4775.79,463.226 4775.83,462.857C4773.06,459.833 4773.09,458.433 4773.3,457.241C4770.77,455.774 4765.72,452.845 4759.76,449.392L4758.19,452.9C4758.31,452.982 4758.44,453.065 4758.51,453.136ZM4570.58,368.329C4570.58,368.329 4569.35,368.872 4568.77,368.557L4567.4,367.814C4567.4,367.814 4567.12,367.472 4567.87,366.111C4567.95,365.954 4565.8,364.625 4562.06,362.466L4560.86,364.184C4566.41,367.951 4573.84,373.819 4573.84,373.819C4573.84,373.819 4577.63,374.637 4579.03,375.219L4578.81,374.589L4579.41,373.162L4570.58,368.329ZM4854.42,546.37C4857.08,548.58 4871.81,556.857 4877.59,555.705C4887.17,553.794 4892.31,543.703 4888.2,534.045C4882.53,520.695 4869.24,514.399 4869.24,514.399C4869.24,514.399 4868.12,514.513 4866.38,513.353C4866.16,513.2 4865.9,513.023 4865.65,512.857L4865.57,513.023L4864.31,515.708C4864.17,516.003 4863.96,516.239 4863.72,516.432C4862.4,519.397 4861.38,522.099 4860.67,524.564C4864.36,522.295 4868.07,522.13 4871.85,524.033C4875.85,526.043 4878.65,528.874 4879.94,532.229C4881.11,535.268 4880.97,538.509 4879.55,541.34C4877.1,546.22 4870.89,549.28 4863.76,545.697C4858.56,543.082 4856.41,538.957 4855.88,534.494C4855.04,535.689 4854.15,537.081 4853.23,538.634C4853.21,538.941 4853.14,539.256 4852.98,539.543C4852.29,540.734 4851.6,542.068 4850.9,543.428C4852.37,544.403 4853.67,545.269 4853.67,545.269C4853.67,545.269 4854.25,545.559 4854.42,546.37ZM4865.39,542.453C4870.61,545.08 4874.71,542.878 4876.31,539.708C4877.26,537.801 4877.36,535.61 4876.56,533.534C4875.6,531.037 4873.4,528.874 4870.22,527.278C4868.6,526.456 4864.99,524.678 4859.53,530.105C4858.91,536.106 4860.82,540.156 4865.39,542.453ZM4760.06,463.486C4759.96,463.883 4759.79,464.292 4759.56,464.701L4760.79,465.483L4761.13,464.937C4761.21,464.819 4761.4,464.626 4761.68,464.426C4761.14,464.233 4760.59,463.934 4760.06,463.486ZM4845.32,541.368C4845.32,541.368 4845.68,540.086 4847.02,540.904L4847.41,541.147C4848.07,539.881 4848.73,538.611 4849.38,537.478C4849.57,537.152 4849.84,536.928 4850.14,536.751C4852.11,533.432 4854.06,530.734 4856.01,528.599C4856.78,523.184 4858.98,518.009 4860.38,514.946C4860.36,514.619 4860.39,514.289 4860.54,513.974L4861.83,511.237C4861.96,510.974 4862.03,510.801 4862.15,510.557L4861.7,510.266C4861.7,510.266 4861.06,510.667 4860.13,510.199C4859.21,509.735 4855.45,507.12 4855.45,507.12C4855.45,507.12 4854.17,507.639 4853.76,507.285C4853.36,506.943 4853.71,505.665 4853.71,505.665L4852.2,504.847C4850.14,506.538 4848.61,509.46 4847.49,511.678C4846.27,514.108 4845.46,512.834 4844.76,513.939C4844.06,515.036 4842.73,516.825 4841.49,520.132C4840.83,521.914 4838.4,528.764 4836.4,535.304L4845.32,541.368ZM4656.76,398.035C4650.47,397.118 4645.15,397.429 4640.58,398.577C4677.68,418.491 4718.81,440.281 4723.88,442.962C4724.63,442.152 4725.32,442.616 4727.23,443.835C4729.42,445.224 4729.26,446.195 4729.26,446.195L4732.1,447.729C4732.42,447.32 4733.59,446.01 4735.63,446.411C4738,446.883 4739.9,449.435 4739.9,449.435C4739.9,449.435 4743.16,446.718 4745.47,447.304C4747.78,447.89 4750.16,450.969 4750.16,450.969C4750.16,450.969 4751.38,450.859 4752.19,450.682C4752.44,450.627 4753.1,450.772 4753.87,451.016L4755.63,447.005C4743.35,439.883 4728.78,431.456 4723.15,428.232C4712.66,422.235 4672.18,400.272 4656.76,398.035ZM3049.41,264.193L3051.22,263.676C3055.11,269.377 3048.37,274.172 3047.59,279.745C3049.28,280.394 3052.78,280.004 3054.98,279.227C3060.55,279.097 3064.57,274.561 3069.88,274.821C3071.96,277.412 3068.07,279.485 3066.51,281.041C3068.07,281.43 3072.22,280.004 3071.44,283.504C3067.03,286.226 3062.37,289.595 3055.89,288.169C3052.13,291.798 3050.57,296.852 3050.31,301.518C3052.26,301.518 3053.17,298.925 3055.37,299.444C3057.05,299.832 3058.87,300.741 3058.09,303.073C3056.28,308.904 3050.44,311.237 3046.3,315.514C3046.3,319.791 3042.02,322.512 3038.78,324.327C3041.63,355.95 3049.41,385.886 3051.22,417.638C3063.28,433.32 3073.12,450.038 3082.97,466.756C3086.34,472.069 3086.73,479.067 3091.66,483.474C3097.1,485.417 3101.25,491.249 3106.95,491.249C3109.93,485.677 3106.95,479.586 3104.75,474.531C3099.56,465.719 3093.99,454.703 3084.27,450.297C3076.36,432.413 3063.4,409.084 3077.4,389.903C3085.7,378.888 3100.34,377.981 3112.91,381.48C3126.39,386.146 3134.16,399.882 3137.14,412.583C3141.68,417.379 3144.92,422.692 3144.92,429.431C3145.05,432.801 3143.5,435.653 3140.51,437.466C3140.13,451.851 3148.16,462.609 3150.49,475.698C3160.86,483.603 3176.54,485.936 3188.47,479.845C3202.46,477.124 3215.55,482.697 3223.59,494.359C3229.42,508.097 3236.03,521.446 3243.55,534.536C3253.27,550.865 3266.36,565.899 3275.56,582.487C3285.8,607.63 3282.68,637.178 3285.53,665.43C3291.11,680.853 3279.7,693.165 3278.67,707.809L3273.61,712.733C3268.82,719.214 3267.13,727.637 3260.91,732.95C3256.89,732.563 3258.97,727.508 3258.45,725.175C3257.15,726.341 3255.47,726.99 3254.69,728.674C3266.61,765.092 3278.54,801.638 3284.5,840.648C3281.91,847.517 3274.26,848.941 3267.78,849.59C3266.87,851.534 3265.45,853.867 3263.12,854.256C3258.97,851.923 3255.86,855.68 3252.49,857.106C3249.25,857.754 3245.23,855.68 3242.25,857.754C3238.23,860.216 3234.73,857.106 3231.11,855.163C3227.22,859.18 3221.51,855.68 3217.37,855.81C3206.09,856.847 3216.72,866.826 3214.26,873.307C3208.43,897.671 3216.46,921.647 3220.22,944.845C3225.27,966.488 3232.01,987.482 3239.4,1008.22C3253.39,1023.64 3259.49,1042.3 3263.12,1062C3264.15,1077.55 3267.52,1096.09 3257.8,1108.66C3255.34,1110.99 3251.58,1112.16 3247.82,1111.25C3245.1,1110.08 3242.64,1107.1 3241.99,1104.38C3239.01,1081.05 3226.83,1061.74 3216.46,1041.53C3215.16,1039.32 3212.18,1037.12 3214.26,1034.4C3219.05,1033.88 3219.96,1028.57 3221.38,1025.07C3217.76,1019.23 3206.35,1021.31 3208.3,1012.88C3207.91,1010.16 3211.02,1010.81 3212.7,1010.68C3213.74,1010.94 3215.03,1012.37 3215.81,1011.33C3212.44,998.628 3201.56,988.908 3195.85,977.114C3180.3,951.584 3172.27,922.943 3169.8,891.968C3166.43,896.375 3163.32,901.17 3158.92,904.929C3153.47,937.588 3144.53,968.821 3133.65,999.276C3130.28,1018.2 3122.11,1038.03 3127.43,1057.99C3123.8,1075.22 3128.07,1092.98 3126.26,1110.21C3124.83,1113.06 3125.61,1117.86 3121.2,1118.38C3118.09,1118.89 3114.47,1119.03 3112.26,1116.43C3106.56,1100.88 3101.38,1085.07 3093.86,1070.17C3088.81,1058.63 3075.98,1050.21 3078.31,1035.56C3079.6,1031.81 3083.88,1032.71 3086.73,1031.29C3091.79,1029.21 3094.51,1023.64 3095.41,1019.1C3093.34,1020.53 3092.05,1022.99 3089.19,1021.96C3086.73,1018.72 3092.3,1017.16 3091.66,1013.53C3092.69,1008.48 3098.91,1011.46 3102.28,1011.07C3106.17,989.556 3107.34,966.876 3108.51,944.197C3110.06,919.444 3117.71,897.152 3127.17,875.768C3127.04,864.493 3127.3,853.347 3128.07,842.462L3113.17,837.536C3112,838.575 3110.71,839.222 3109.15,839.352L3090.75,835.333C3086.99,833.39 3082.2,834.686 3078.96,836.889C3063.92,836.5 3050.96,831.057 3038.78,823.8C3038.65,815.246 3028.28,815.635 3023.23,811.099C3017.14,812.525 3012.47,804.619 3005.86,806.952C3003.53,805.786 3001.07,802.934 3000.55,800.731C3013.38,784.532 3020.38,765.999 3032.56,749.41C3048.89,721.417 3072.35,697.052 3094.51,671.392L3093.21,670.095C3092.17,667.762 3089.84,665.172 3092.95,662.968C3103.32,656.617 3115.63,655.063 3127.43,652.47C3136.5,647.287 3139.61,636.919 3141.81,627.587C3134.94,621.108 3131.96,612.683 3128.07,604.778C3122.11,586.763 3104.62,573.415 3096.32,556.308C3093.86,543.608 3080.38,535.313 3072.99,524.557C3057.05,498.896 3047.2,470.255 3034.76,442.78C3031.01,432.153 3025.17,422.304 3022.71,411.029C3020.77,390.94 3022.06,370.075 3022.97,350.765C3022.45,339.62 3025.04,329.641 3025.43,319.272C3031.26,311.237 3030.49,300.351 3034.76,291.669C3042.8,284.021 3043.58,273.006 3049.41,264.193ZM3228.9,570.045C3225.27,585.079 3230.07,602.445 3223.59,616.312C3214.9,626.421 3222.42,639.382 3227.61,648.712C3233.83,655.193 3240.18,662.709 3244.45,670.485C3247.69,678.26 3251.06,686.296 3251.84,694.719C3249.77,697.182 3246.53,698.348 3244.06,700.681C3247.05,707.939 3249.51,715.326 3252.88,722.454C3256.51,717.918 3262.47,714.808 3263.76,708.976C3267.13,704.828 3265.97,698.608 3267.13,693.424C3264.8,694.849 3262.21,697.182 3259.36,695.368C3257.03,694.331 3257.41,691.221 3257.8,689.146C3259.62,687.073 3261.56,684.222 3264.67,684.482C3265.58,679.686 3267.39,675.41 3270.89,671.651L3268.95,662.709L3250.93,601.668L3228.9,570.045ZM2995.38,1160.91L2995.38,1151.19L5154.09,1151.19L5154.09,1160.91L2995.38,1160.91ZM3002.58,1535.02L3005.45,1379.88L3026.71,1379.88L3054.1,1505.72L3081.68,1379.88L3102.75,1379.88L3105.62,1535.02L3088.19,1535.02L3086.47,1422.4L3060.23,1535.02L3047.97,1535.02L3021.92,1422.4L3020.2,1535.02L3002.58,1535.02ZM3188.56,1536.75C3177.32,1536.75 3168.7,1534.51 3162.7,1530.04C3156.7,1525.57 3152.61,1519.28 3150.44,1511.18C3148.27,1503.07 3147.19,1493.59 3147.19,1482.73L3147.19,1379.88L3167.87,1379.88L3167.87,1483.69C3167.87,1490.33 3168.32,1496.4 3169.21,1501.89C3170.11,1507.38 3172.05,1511.72 3175.06,1514.91C3178.06,1518.1 3182.56,1519.7 3188.56,1519.7C3194.69,1519.7 3199.22,1518.1 3202.16,1514.91C3205.09,1511.72 3207.01,1507.38 3207.9,1501.89C3208.8,1496.4 3209.24,1490.33 3209.24,1483.69L3209.24,1379.88L3229.74,1379.88L3229.74,1482.73C3229.74,1493.59 3228.65,1503.07 3226.48,1511.18C3224.31,1519.28 3220.26,1525.57 3214.32,1530.04C3208.38,1534.51 3199.79,1536.75 3188.56,1536.75ZM3308.27,1536.75C3299.33,1536.75 3291.89,1534.83 3285.95,1531C3280.01,1527.17 3275.51,1521.87 3272.45,1515.1C3269.39,1508.34 3267.6,1500.48 3267.09,1491.54L3286.24,1486.37C3286.62,1491.86 3287.49,1497.16 3288.83,1502.27C3290.17,1507.38 3292.37,1511.56 3295.43,1514.82C3298.5,1518.07 3302.78,1519.7 3308.27,1519.7C3313.89,1519.7 3318.13,1518.13 3321,1515.01C3323.88,1511.88 3325.31,1507.38 3325.31,1501.5C3325.31,1494.48 3323.72,1488.83 3320.53,1484.55C3317.33,1480.28 3313.31,1475.97 3308.46,1471.62L3282.41,1448.64C3277.3,1444.17 3273.53,1439.29 3271.11,1433.99C3268.68,1428.69 3267.47,1422.14 3267.47,1414.36C3267.47,1402.99 3270.73,1394.18 3277.24,1387.92C3283.75,1381.67 3292.62,1378.54 3303.86,1378.54C3309.99,1378.54 3315.39,1379.34 3320.05,1380.93C3324.71,1382.53 3328.6,1384.99 3331.73,1388.31C3334.86,1391.63 3337.35,1395.81 3339.2,1400.85C3341.05,1405.9 3342.3,1411.8 3342.93,1418.57L3324.55,1423.55C3324.16,1418.44 3323.4,1413.75 3322.25,1409.47C3321.1,1405.19 3319.09,1401.75 3316.22,1399.13C3313.34,1396.51 3309.22,1395.2 3303.86,1395.2C3298.5,1395.2 3294.32,1396.64 3291.32,1399.51C3288.32,1402.38 3286.82,1406.63 3286.82,1412.25C3286.82,1416.97 3287.61,1420.87 3289.21,1423.93C3290.81,1427 3293.39,1430.12 3296.97,1433.32L3323.21,1456.3C3329.08,1461.41 3334.25,1467.51 3338.72,1474.59C3343.19,1481.68 3345.42,1490.08 3345.42,1499.78C3345.42,1507.44 3343.83,1514.05 3340.64,1519.6C3337.44,1525.16 3333.07,1529.4 3327.52,1532.34C3321.96,1535.28 3315.55,1536.75 3308.27,1536.75ZM3382.58,1535.02L3382.58,1379.88L3403.84,1379.88L3403.84,1535.02L3382.58,1535.02ZM3486.97,1536.75C3475.99,1536.75 3467.46,1534.45 3461.4,1529.85C3455.33,1525.25 3451.12,1519.06 3448.76,1511.27C3446.39,1503.48 3445.21,1494.8 3445.21,1485.22L3445.21,1430.44C3445.21,1419.97 3446.39,1410.84 3448.76,1403.06C3451.12,1395.27 3455.33,1389.23 3461.4,1384.95C3467.46,1380.68 3475.99,1378.54 3486.97,1378.54C3496.67,1378.54 3504.37,1380.33 3510.05,1383.9C3515.73,1387.48 3519.82,1392.58 3522.31,1399.22C3524.8,1405.86 3526.04,1413.85 3526.04,1423.17L3526.04,1435.42L3505.55,1435.42L3505.55,1424.51C3505.55,1418.76 3505.26,1413.68 3504.68,1409.28C3504.11,1404.87 3502.55,1401.46 3499.99,1399.03C3497.44,1396.61 3493.16,1395.39 3487.16,1395.39C3481.03,1395.39 3476.56,1396.7 3473.75,1399.32C3470.94,1401.94 3469.12,1405.64 3468.29,1410.43C3467.46,1415.22 3467.05,1420.8 3467.05,1427.19L3467.05,1488.67C3467.05,1496.46 3467.69,1502.62 3468.96,1507.15C3470.24,1511.69 3472.35,1514.91 3475.28,1516.83C3478.22,1518.74 3482.18,1519.7 3487.16,1519.7C3493.03,1519.7 3497.25,1518.39 3499.8,1515.77C3502.36,1513.15 3503.95,1509.55 3504.59,1504.95C3505.23,1500.35 3505.55,1494.99 3505.55,1488.86L3505.55,1477.37L3526.04,1477.37L3526.04,1488.86C3526.04,1498.31 3524.89,1506.64 3522.59,1513.86C3520.3,1521.07 3516.34,1526.69 3510.72,1530.71C3505.1,1534.74 3497.18,1536.75 3486.97,1536.75ZM3564.73,1560.11L3561.47,1551.3C3564.92,1550.15 3567.64,1548.14 3569.62,1545.27C3571.6,1542.4 3572.58,1538.98 3572.58,1535.02L3561.67,1535.02L3561.67,1513L3582.74,1513L3582.74,1534.64C3582.74,1541.41 3581.27,1546.8 3578.33,1550.82C3575.39,1554.85 3570.86,1557.94 3564.73,1560.11ZM3690.25,1535.02L3690.25,1379.88L3723.96,1379.88C3735.45,1379.88 3744.55,1381.63 3751.25,1385.15C3757.96,1388.66 3762.75,1393.92 3765.62,1400.95C3768.49,1407.97 3769.93,1416.72 3769.93,1427.19L3769.93,1484.27C3769.93,1495.25 3768.49,1504.5 3765.62,1512.04C3762.75,1519.57 3758.09,1525.29 3751.64,1529.18C3745.19,1533.08 3736.54,1535.02 3725.68,1535.02L3690.25,1535.02ZM3711.89,1519.51L3724.15,1519.51C3732.07,1519.51 3737.69,1517.98 3741.01,1514.91C3744.33,1511.85 3746.34,1507.38 3747.04,1501.5C3747.74,1495.63 3748.09,1488.54 3748.09,1480.24L3748.09,1429.87C3748.09,1421.83 3747.58,1415.31 3746.56,1410.33C3745.54,1405.35 3743.31,1401.71 3739.86,1399.42C3736.41,1397.12 3730.98,1395.97 3723.58,1395.97L3711.89,1395.97L3711.89,1519.51ZM3801.91,1535.02L3834.86,1379.88L3855.74,1379.88L3888.87,1535.02L3868.38,1535.02L3861.29,1495.95L3829.69,1495.95L3822.22,1535.02L3801.91,1535.02ZM3832.56,1480.43L3858.42,1480.43L3845.39,1410.53L3832.56,1480.43ZM3923.73,1535.02L3923.73,1379.88L3938.48,1379.88L3982.53,1482.92L3982.53,1379.88L4000.54,1379.88L4000.54,1535.02L3986.74,1535.02L3942.12,1429.1L3942.12,1535.02L3923.73,1535.02ZM4082.9,1536.75C4071.91,1536.75 4063.39,1534.45 4057.33,1529.85C4051.26,1525.25 4047.05,1519.06 4044.68,1511.27C4042.32,1503.48 4041.14,1494.8 4041.14,1485.22L4041.14,1430.44C4041.14,1419.97 4042.32,1410.84 4044.68,1403.06C4047.05,1395.27 4051.26,1389.23 4057.33,1384.95C4063.39,1380.68 4071.91,1378.54 4082.9,1378.54C4092.6,1378.54 4100.29,1380.33 4105.98,1383.9C4111.66,1387.48 4115.74,1392.58 4118.23,1399.22C4120.72,1405.86 4121.97,1413.85 4121.97,1423.17L4121.97,1435.42L4101.47,1435.42L4101.47,1424.51C4101.47,1418.76 4101.19,1413.68 4100.61,1409.28C4100.04,1404.87 4098.47,1401.46 4095.92,1399.03C4093.37,1396.61 4089.09,1395.39 4083.09,1395.39C4076.96,1395.39 4072.49,1396.7 4069.68,1399.32C4066.87,1401.94 4065.05,1405.64 4064.22,1410.43C4063.39,1415.22 4062.98,1420.8 4062.98,1427.19L4062.98,1488.67C4062.98,1496.46 4063.61,1502.62 4064.89,1507.15C4066.17,1511.69 4068.28,1514.91 4071.21,1516.83C4074.15,1518.74 4078.11,1519.7 4083.09,1519.7C4088.96,1519.7 4093.18,1518.39 4095.73,1515.77C4098.28,1513.15 4099.88,1509.55 4100.52,1504.95C4101.15,1500.35 4101.47,1494.99 4101.47,1488.86L4101.47,1477.37L4121.97,1477.37L4121.97,1488.86C4121.97,1498.31 4120.82,1506.64 4118.52,1513.86C4116.22,1521.07 4112.26,1526.69 4106.65,1530.71C4101.03,1534.74 4093.11,1536.75 4082.9,1536.75ZM4161.81,1535.02L4161.81,1379.88L4221.95,1379.88L4221.95,1395.97L4183.45,1395.97L4183.45,1447.3L4214.67,1447.3L4214.67,1462.62L4183.45,1462.62L4183.45,1519.51L4222.33,1519.51L4222.33,1535.02L4161.81,1535.02ZM4360.88,1536.75C4353.85,1536.75 4347.82,1535.25 4342.78,1532.25C4337.73,1529.24 4333.9,1525.13 4331.28,1519.89C4328.67,1514.65 4327.36,1508.65 4327.36,1501.89C4327.36,1492.05 4329.56,1483.53 4333.97,1476.32C4338.37,1469.1 4343.7,1462.69 4349.96,1457.07C4347.66,1452.47 4345.2,1447.84 4342.58,1443.18C4339.97,1438.52 4337.73,1433.67 4335.88,1428.62C4334.03,1423.58 4333.1,1418.31 4333.1,1412.82C4333.1,1405.93 4334.44,1399.93 4337.12,1394.82C4339.81,1389.71 4343.64,1385.72 4348.62,1382.85C4353.6,1379.98 4359.47,1378.54 4366.24,1378.54C4372.5,1378.54 4378.08,1379.69 4383,1381.99C4387.91,1384.28 4391.84,1387.57 4394.78,1391.85C4397.71,1396.13 4399.18,1401.27 4399.18,1407.27C4399.18,1414.04 4397.62,1420.52 4394.49,1426.71C4391.36,1432.9 4387.56,1438.65 4383.09,1443.95C4378.62,1449.25 4374.28,1453.94 4370.07,1458.03L4393.44,1494.8C4394.84,1492.12 4396.02,1489.09 4396.98,1485.7C4397.94,1482.32 4398.77,1478.71 4399.47,1474.88C4400.17,1471.05 4400.72,1467.35 4401.1,1463.77L4421.4,1463.77C4421.4,1468.75 4420.67,1473.99 4419.2,1479.48C4417.73,1484.97 4415.85,1490.17 4413.55,1495.09C4411.25,1500 4408.89,1504.18 4406.46,1507.63C4408.12,1509.68 4410.29,1511.5 4412.97,1513.09C4415.65,1514.69 4418.53,1515.49 4421.59,1515.49L4421.59,1536.55L4418.91,1536.55C4415.21,1536.43 4411.89,1535.57 4408.95,1533.97C4406.01,1532.37 4403.36,1530.42 4401,1528.13C4398.64,1525.83 4396.37,1523.66 4394.2,1521.62C4390.76,1525.96 4386.25,1529.56 4380.7,1532.44C4375.15,1535.31 4368.54,1536.75 4360.88,1536.75ZM4360.88,1519.7C4365.73,1519.7 4369.81,1518.52 4373.13,1516.16C4376.45,1513.79 4379.33,1511.14 4381.75,1508.21L4358,1471.62C4354.94,1475.58 4352.48,1480.21 4350.63,1485.51C4348.78,1490.81 4347.85,1496.27 4347.85,1501.89C4347.85,1504.82 4348.23,1507.66 4349,1510.41C4349.77,1513.15 4351.11,1515.39 4353.02,1517.11C4354.94,1518.84 4357.56,1519.7 4360.88,1519.7ZM4362.98,1446.92C4365.66,1443.72 4368.19,1439.96 4370.55,1435.62C4372.91,1431.27 4374.86,1426.64 4376.39,1421.73C4377.92,1416.81 4378.69,1411.99 4378.69,1407.27C4378.69,1403.57 4377.54,1400.66 4375.24,1398.55C4372.94,1396.45 4369.94,1395.39 4366.24,1395.39C4361.64,1395.39 4358.39,1397.18 4356.47,1400.76C4354.56,1404.33 4353.6,1408.35 4353.6,1412.82C4353.6,1418.7 4354.59,1424.54 4356.57,1430.35C4358.55,1436.16 4360.68,1441.68 4362.98,1446.92ZM4569.52,1536.75C4560.58,1536.75 4553.14,1534.83 4547.21,1531C4541.27,1527.17 4536.77,1521.87 4533.7,1515.1C4530.64,1508.34 4528.85,1500.48 4528.34,1491.54L4547.49,1486.37C4547.88,1491.86 4548.74,1497.16 4550.08,1502.27C4551.42,1507.38 4553.62,1511.56 4556.69,1514.82C4559.75,1518.07 4564.03,1519.7 4569.52,1519.7C4575.14,1519.7 4579.39,1518.13 4582.26,1515.01C4585.13,1511.88 4586.57,1507.38 4586.57,1501.5C4586.57,1494.48 4584.97,1488.83 4581.78,1484.55C4578.59,1480.28 4574.56,1475.97 4569.71,1471.62L4543.66,1448.64C4538.56,1444.17 4534.79,1439.29 4532.36,1433.99C4529.94,1428.69 4528.72,1422.14 4528.72,1414.36C4528.72,1402.99 4531.98,1394.18 4538.49,1387.92C4545,1381.67 4553.88,1378.54 4565.11,1378.54C4571.24,1378.54 4576.64,1379.34 4581.3,1380.93C4585.96,1382.53 4589.86,1384.99 4592.98,1388.31C4596.11,1391.63 4598.6,1395.81 4600.45,1400.85C4602.31,1405.9 4603.55,1411.8 4604.19,1418.57L4585.8,1423.55C4585.42,1418.44 4584.65,1413.75 4583.5,1409.47C4582.35,1405.19 4580.34,1401.75 4577.47,1399.13C4574.6,1396.51 4570.48,1395.2 4565.11,1395.2C4559.75,1395.2 4555.57,1396.64 4552.57,1399.51C4549.57,1402.38 4548.07,1406.63 4548.07,1412.25C4548.07,1416.97 4548.87,1420.87 4550.46,1423.93C4552.06,1427 4554.65,1430.12 4558.22,1433.32L4584.46,1456.3C4590.33,1461.41 4595.51,1467.51 4599.97,1474.59C4604.44,1481.68 4606.68,1490.08 4606.68,1499.78C4606.68,1507.44 4605.08,1514.05 4601.89,1519.6C4598.7,1525.16 4594.32,1529.4 4588.77,1532.34C4583.22,1535.28 4576.8,1536.75 4569.52,1536.75ZM4642.69,1535.02L4642.69,1379.88L4681.19,1379.88C4690.51,1379.88 4697.94,1381.57 4703.5,1384.95C4709.05,1388.34 4713.11,1393.22 4715.66,1399.61C4718.22,1405.99 4719.49,1413.72 4719.49,1422.78C4719.49,1430.95 4718.06,1438.04 4715.18,1444.04C4712.31,1450.05 4708.06,1454.67 4702.44,1457.93C4696.83,1461.18 4689.8,1462.81 4681.38,1462.81L4664.33,1462.81L4664.33,1535.02L4642.69,1535.02ZM4664.33,1447.3L4674.29,1447.3C4680.55,1447.3 4685.46,1446.6 4689.04,1445.19C4692.61,1443.79 4695.17,1441.33 4696.7,1437.82C4698.23,1434.31 4699,1429.36 4699,1422.97C4699,1415.57 4698.45,1409.89 4697.37,1405.93C4696.28,1401.97 4694.02,1399.22 4690.57,1397.69C4687.12,1396.16 4681.76,1395.39 4674.48,1395.39L4664.33,1395.39L4664.33,1447.3ZM4753.78,1535.02L4753.78,1379.88L4813.92,1379.88L4813.92,1395.97L4775.42,1395.97L4775.42,1447.3L4806.64,1447.3L4806.64,1462.62L4775.42,1462.62L4775.42,1519.51L4814.3,1519.51L4814.3,1535.02L4753.78,1535.02ZM4850.89,1535.02L4850.89,1379.88L4911.03,1379.88L4911.03,1395.97L4872.53,1395.97L4872.53,1447.3L4903.75,1447.3L4903.75,1462.62L4872.53,1462.62L4872.53,1519.51L4911.41,1519.51L4911.41,1535.02L4850.89,1535.02ZM4986.87,1536.75C4975.89,1536.75 4967.37,1534.45 4961.3,1529.85C4955.24,1525.25 4951.03,1519.06 4948.66,1511.27C4946.3,1503.48 4945.12,1494.8 4945.12,1485.22L4945.12,1430.44C4945.12,1419.97 4946.3,1410.84 4948.66,1403.06C4951.03,1395.27 4955.24,1389.23 4961.3,1384.95C4967.37,1380.68 4975.89,1378.54 4986.87,1378.54C4996.58,1378.54 5004.27,1380.33 5009.95,1383.9C5015.64,1387.48 5019.72,1392.58 5022.21,1399.22C5024.7,1405.86 5025.95,1413.85 5025.95,1423.17L5025.95,1435.42L5005.45,1435.42L5005.45,1424.51C5005.45,1418.76 5005.16,1413.68 5004.59,1409.28C5004.02,1404.87 5002.45,1401.46 4999.9,1399.03C4997.34,1396.61 4993.07,1395.39 4987.07,1395.39C4980.94,1395.39 4976.47,1396.7 4973.66,1399.32C4970.85,1401.94 4969.03,1405.64 4968.2,1410.43C4967.37,1415.22 4966.95,1420.8 4966.95,1427.19L4966.95,1488.67C4966.95,1496.46 4967.59,1502.62 4968.87,1507.15C4970.15,1511.69 4972.25,1514.91 4975.19,1516.83C4978.13,1518.74 4982.09,1519.7 4987.07,1519.7C4992.94,1519.7 4997.15,1518.39 4999.71,1515.77C5002.26,1513.15 5003.86,1509.55 5004.49,1504.95C5005.13,1500.35 5005.45,1494.99 5005.45,1488.86L5005.45,1477.37L5025.95,1477.37L5025.95,1488.86C5025.95,1498.31 5024.8,1506.64 5022.5,1513.86C5020.2,1521.07 5016.24,1526.69 5010.62,1530.71C5005.01,1534.74 4997.09,1536.75 4986.87,1536.75ZM5065.79,1535.02L5065.79,1379.88L5087.43,1379.88L5087.43,1446.92L5127.27,1446.92L5127.27,1379.88L5148.91,1379.88L5148.91,1535.02L5127.27,1535.02L5127.27,1462.43L5087.43,1462.43L5087.43,1535.02L5065.79,1535.02ZM3033.25,1317.33C3024.65,1317.33 3017.97,1315.53 3013.22,1311.92C3008.47,1308.33 3005.17,1303.48 3003.32,1297.38C3001.47,1291.28 3000.55,1284.48 3000.55,1276.98L3000.55,1234.08C3000.55,1225.88 3001.47,1218.73 3003.32,1212.63C3005.17,1206.53 3008.47,1201.8 3013.22,1198.45C3017.97,1195.1 3024.65,1193.43 3033.25,1193.43C3040.85,1193.43 3046.87,1194.83 3051.32,1197.63C3055.77,1200.43 3058.97,1204.43 3060.92,1209.63C3062.87,1214.83 3063.85,1221.08 3063.85,1228.38L3063.85,1237.98L3047.8,1237.98L3047.8,1229.43C3047.8,1224.93 3047.57,1220.95 3047.12,1217.5C3046.67,1214.05 3045.45,1211.38 3043.45,1209.48C3041.45,1207.58 3038.1,1206.63 3033.4,1206.63C3028.6,1206.63 3025.1,1207.65 3022.9,1209.7C3020.7,1211.75 3019.27,1214.65 3018.62,1218.4C3017.97,1222.15 3017.65,1226.53 3017.65,1231.53L3017.65,1279.67C3017.65,1285.78 3018.15,1290.6 3019.15,1294.15C3020.15,1297.7 3021.8,1300.23 3024.1,1301.73C3026.4,1303.23 3029.5,1303.98 3033.4,1303.98C3038,1303.98 3041.3,1302.95 3043.3,1300.9C3045.3,1298.85 3046.55,1296.03 3047.05,1292.42C3047.55,1288.83 3047.8,1284.62 3047.8,1279.83L3047.8,1270.83L3063.85,1270.83L3063.85,1279.83C3063.85,1287.23 3062.95,1293.75 3061.15,1299.4C3059.35,1305.05 3056.25,1309.45 3051.85,1312.6C3047.45,1315.75 3041.25,1317.33 3033.25,1317.33ZM3110.05,1315.98L3110.05,1194.48L3127,1194.48L3127,1246.98L3158.2,1246.98L3158.2,1194.48L3175.15,1194.48L3175.15,1315.98L3158.2,1315.98L3158.2,1259.12L3127,1259.12L3127,1315.98L3110.05,1315.98ZM3225.1,1315.98L3225.1,1194.48L3241.75,1194.48L3241.75,1315.98L3225.1,1315.98ZM3321.85,1317.33C3313.25,1317.33 3306.57,1315.53 3301.82,1311.92C3297.07,1308.33 3293.77,1303.48 3291.92,1297.38C3290.07,1291.28 3289.15,1284.48 3289.15,1276.98L3289.15,1234.08C3289.15,1225.88 3290.07,1218.73 3291.92,1212.63C3293.77,1206.53 3297.07,1201.8 3301.82,1198.45C3306.57,1195.1 3313.25,1193.43 3321.85,1193.43C3329.45,1193.43 3335.47,1194.83 3339.92,1197.63C3344.37,1200.43 3347.57,1204.43 3349.52,1209.63C3351.47,1214.83 3352.45,1221.08 3352.45,1228.38L3352.45,1237.98L3336.4,1237.98L3336.4,1229.43C3336.4,1224.93 3336.17,1220.95 3335.72,1217.5C3335.27,1214.05 3334.05,1211.38 3332.05,1209.48C3330.05,1207.58 3326.7,1206.63 3322,1206.63C3317.2,1206.63 3313.7,1207.65 3311.5,1209.7C3309.3,1211.75 3307.87,1214.65 3307.22,1218.4C3306.57,1222.15 3306.25,1226.53 3306.25,1231.53L3306.25,1279.67C3306.25,1285.78 3306.75,1290.6 3307.75,1294.15C3308.75,1297.7 3310.4,1300.23 3312.7,1301.73C3315,1303.23 3318.1,1303.98 3322,1303.98C3326.6,1303.98 3329.9,1302.95 3331.9,1300.9C3333.9,1298.85 3335.15,1296.03 3335.65,1292.42C3336.15,1288.83 3336.4,1284.62 3336.4,1279.83L3336.4,1270.83L3352.45,1270.83L3352.45,1279.83C3352.45,1287.23 3351.55,1293.75 3349.75,1299.4C3347.95,1305.05 3344.85,1309.45 3340.45,1312.6C3336.05,1315.75 3329.85,1317.33 3321.85,1317.33ZM3398.65,1315.98L3398.65,1194.48L3415.6,1194.48L3415.6,1246.98L3446.8,1246.98L3446.8,1194.48L3463.75,1194.48L3463.75,1315.98L3446.8,1315.98L3446.8,1259.12L3415.6,1259.12L3415.6,1315.98L3398.65,1315.98ZM3512.8,1315.98L3512.8,1194.48L3559.9,1194.48L3559.9,1207.08L3529.75,1207.08L3529.75,1247.28L3554.2,1247.28L3554.2,1259.28L3529.75,1259.28L3529.75,1303.83L3560.2,1303.83L3560.2,1315.98L3512.8,1315.98ZM3632.5,1317.33C3625.5,1317.33 3619.67,1315.83 3615.02,1312.83C3610.37,1309.83 3606.85,1305.67 3604.45,1300.38C3602.05,1295.08 3600.65,1288.92 3600.25,1281.92L3615.25,1277.88C3615.55,1282.17 3616.22,1286.33 3617.27,1290.33C3618.32,1294.33 3620.05,1297.6 3622.45,1300.15C3624.85,1302.7 3628.2,1303.98 3632.5,1303.98C3636.9,1303.98 3640.22,1302.75 3642.47,1300.3C3644.72,1297.85 3645.85,1294.33 3645.85,1289.73C3645.85,1284.23 3644.6,1279.8 3642.1,1276.45C3639.6,1273.1 3636.45,1269.73 3632.65,1266.33L3612.25,1248.33C3608.25,1244.83 3605.3,1241 3603.4,1236.85C3601.5,1232.7 3600.55,1227.58 3600.55,1221.48C3600.55,1212.58 3603.1,1205.68 3608.2,1200.78C3613.3,1195.88 3620.25,1193.43 3629.05,1193.43C3633.85,1193.43 3638.07,1194.05 3641.72,1195.3C3645.37,1196.55 3648.42,1198.48 3650.87,1201.08C3653.32,1203.68 3655.27,1206.95 3656.72,1210.9C3658.17,1214.85 3659.15,1219.48 3659.65,1224.78L3645.25,1228.68C3644.95,1224.68 3644.35,1221 3643.45,1217.65C3642.55,1214.3 3640.97,1211.6 3638.72,1209.55C3636.47,1207.5 3633.25,1206.48 3629.05,1206.48C3624.85,1206.48 3621.57,1207.6 3619.22,1209.85C3616.87,1212.1 3615.7,1215.43 3615.7,1219.83C3615.7,1223.53 3616.32,1226.58 3617.57,1228.98C3618.82,1231.38 3620.85,1233.83 3623.65,1236.33L3644.2,1254.33C3648.8,1258.33 3652.85,1263.1 3656.35,1268.65C3659.85,1274.2 3661.6,1280.78 3661.6,1288.38C3661.6,1294.38 3660.35,1299.55 3657.85,1303.9C3655.35,1308.25 3651.92,1311.58 3647.57,1313.88C3643.22,1316.17 3638.2,1317.33 3632.5,1317.33ZM3718.15,1315.98L3718.15,1207.08L3697.6,1207.08L3697.6,1194.48L3755.05,1194.48L3755.05,1207.08L3735.1,1207.08L3735.1,1315.98L3718.15,1315.98ZM3796.75,1315.98L3796.75,1194.48L3843.85,1194.48L3843.85,1207.08L3813.7,1207.08L3813.7,1247.28L3838.15,1247.28L3838.15,1259.28L3813.7,1259.28L3813.7,1303.83L3844.15,1303.83L3844.15,1315.98L3796.75,1315.98ZM3887.8,1315.98L3887.8,1194.48L3912.25,1194.48C3920.35,1194.48 3927.05,1195.55 3932.35,1197.7C3937.64,1199.85 3941.57,1203.3 3944.12,1208.05C3946.67,1212.8 3947.95,1219.03 3947.95,1226.73C3947.95,1231.43 3947.45,1235.7 3946.45,1239.55C3945.45,1243.4 3943.85,1246.65 3941.64,1249.3C3939.45,1251.95 3936.55,1253.88 3932.95,1255.08L3950.2,1315.98L3933.85,1315.98L3917.95,1258.98L3904.75,1258.98L3904.75,1315.98L3887.8,1315.98ZM3904.75,1246.83L3911.2,1246.83C3916,1246.83 3919.9,1246.23 3922.9,1245.03C3925.9,1243.83 3928.1,1241.78 3929.49,1238.88C3930.89,1235.98 3931.6,1231.93 3931.6,1226.73C3931.6,1219.63 3930.3,1214.5 3927.7,1211.35C3925.1,1208.2 3919.95,1206.63 3912.25,1206.63L3904.75,1206.63L3904.75,1246.83ZM4074.99,1315.98L4074.99,1194.48L4121.94,1194.48L4121.94,1206.63L4091.95,1206.63L4091.95,1247.13L4115.19,1247.13L4115.19,1259.12L4091.95,1259.12L4091.95,1315.98L4074.99,1315.98ZM4163.65,1315.98L4163.65,1194.48L4210.74,1194.48L4210.74,1207.08L4180.6,1207.08L4180.6,1247.28L4205.04,1247.28L4205.04,1259.28L4180.6,1259.28L4180.6,1303.83L4211.04,1303.83L4211.04,1315.98L4163.65,1315.98ZM4283.34,1317.33C4276.34,1317.33 4270.52,1315.83 4265.87,1312.83C4261.22,1309.83 4257.69,1305.67 4255.29,1300.38C4252.89,1295.08 4251.49,1288.92 4251.09,1281.92L4266.09,1277.88C4266.39,1282.17 4267.07,1286.33 4268.12,1290.33C4269.17,1294.33 4270.89,1297.6 4273.29,1300.15C4275.69,1302.7 4279.04,1303.98 4283.34,1303.98C4287.74,1303.98 4291.07,1302.75 4293.32,1300.3C4295.57,1297.85 4296.69,1294.33 4296.69,1289.73C4296.69,1284.23 4295.44,1279.8 4292.94,1276.45C4290.44,1273.1 4287.29,1269.73 4283.49,1266.33L4263.09,1248.33C4259.09,1244.83 4256.14,1241 4254.24,1236.85C4252.34,1232.7 4251.39,1227.58 4251.39,1221.48C4251.39,1212.58 4253.94,1205.68 4259.04,1200.78C4264.14,1195.88 4271.09,1193.43 4279.89,1193.43C4284.69,1193.43 4288.92,1194.05 4292.57,1195.3C4296.22,1196.55 4299.27,1198.48 4301.72,1201.08C4304.17,1203.68 4306.12,1206.95 4307.57,1210.9C4309.02,1214.85 4309.99,1219.48 4310.49,1224.78L4296.09,1228.68C4295.79,1224.68 4295.19,1221 4294.29,1217.65C4293.39,1214.3 4291.82,1211.6 4289.57,1209.55C4287.32,1207.5 4284.09,1206.48 4279.89,1206.48C4275.69,1206.48 4272.42,1207.6 4270.07,1209.85C4267.72,1212.1 4266.54,1215.43 4266.54,1219.83C4266.54,1223.53 4267.17,1226.58 4268.42,1228.98C4269.67,1231.38 4271.69,1233.83 4274.49,1236.33L4295.04,1254.33C4299.64,1258.33 4303.69,1263.1 4307.19,1268.65C4310.69,1274.2 4312.44,1280.78 4312.44,1288.38C4312.44,1294.38 4311.19,1299.55 4308.69,1303.9C4306.19,1308.25 4302.77,1311.58 4298.42,1313.88C4294.07,1316.17 4289.04,1317.33 4283.34,1317.33ZM4368.99,1315.98L4368.99,1207.08L4348.44,1207.08L4348.44,1194.48L4405.89,1194.48L4405.89,1207.08L4385.94,1207.08L4385.94,1315.98L4368.99,1315.98ZM4448.49,1315.98L4448.49,1194.48L4465.14,1194.48L4465.14,1315.98L4448.49,1315.98ZM4535.94,1315.98L4508.79,1194.48L4524.69,1194.48L4543.89,1284.03L4562.19,1194.48L4577.64,1194.48L4550.79,1315.98L4535.94,1315.98ZM4609.74,1315.98L4635.54,1194.48L4651.89,1194.48L4677.84,1315.98L4661.79,1315.98L4656.24,1285.38L4631.49,1285.38L4625.64,1315.98L4609.74,1315.98ZM4633.74,1273.23L4653.99,1273.23L4643.79,1218.48L4633.74,1273.23ZM4720.14,1315.98L4720.14,1194.48L4737.09,1194.48L4737.09,1303.83L4768.14,1303.83L4768.14,1315.98L4720.14,1315.98ZM4889.04,1315.98L4889.04,1194.48L4935.99,1194.48L4935.99,1206.63L4905.99,1206.63L4905.99,1247.13L4929.24,1247.13L4929.24,1259.12L4905.99,1259.12L4905.99,1315.98L4889.04,1315.98ZM5008.74,1317.33C5000.54,1317.33 4993.99,1315.73 4989.09,1312.53C4984.19,1309.33 4980.69,1304.75 4978.59,1298.8C4976.49,1292.85 4975.44,1285.88 4975.44,1277.88L4975.44,1231.83C4975.44,1223.83 4976.52,1216.95 4978.67,1211.2C4980.82,1205.45 4984.32,1201.05 4989.17,1198C4994.02,1194.95 5000.54,1193.43 5008.74,1193.43C5016.94,1193.43 5023.44,1194.98 5028.24,1198.08C5033.04,1201.18 5036.52,1205.58 5038.67,1211.28C5040.82,1216.98 5041.89,1223.83 5041.89,1231.83L5041.89,1278.03C5041.89,1285.92 5040.82,1292.83 5038.67,1298.73C5036.52,1304.62 5033.04,1309.2 5028.24,1312.45C5023.44,1315.7 5016.94,1317.33 5008.74,1317.33ZM5008.74,1303.98C5013.24,1303.98 5016.64,1303.05 5018.94,1301.2C5021.24,1299.35 5022.79,1296.75 5023.59,1293.4C5024.39,1290.05 5024.79,1286.12 5024.79,1281.62L5024.79,1228.38C5024.79,1223.88 5024.39,1220 5023.59,1216.75C5022.79,1213.5 5021.24,1211 5018.94,1209.25C5016.64,1207.5 5013.24,1206.63 5008.74,1206.63C5004.24,1206.63 5000.82,1207.5 4998.47,1209.25C4996.12,1211 4994.54,1213.5 4993.74,1216.75C4992.94,1220 4992.54,1223.88 4992.54,1228.38L4992.54,1281.62C4992.54,1286.12 4992.94,1290.05 4993.74,1293.4C4994.54,1296.75 4996.12,1299.35 4998.47,1301.2C5000.82,1303.05 5004.24,1303.98 5008.74,1303.98ZM5088.54,1315.98L5088.54,1194.48L5112.99,1194.48C5121.09,1194.48 5127.79,1195.55 5133.09,1197.7C5138.39,1199.85 5142.32,1203.3 5144.87,1208.05C5147.42,1212.8 5148.69,1219.03 5148.69,1226.73C5148.69,1231.43 5148.19,1235.7 5147.19,1239.55C5146.19,1243.4 5144.59,1246.65 5142.39,1249.3C5140.19,1251.95 5137.29,1253.88 5133.69,1255.08L5150.94,1315.98L5134.59,1315.98L5118.69,1258.98L5105.49,1258.98L5105.49,1315.98L5088.54,1315.98ZM5105.49,1246.83L5111.94,1246.83C5116.74,1246.83 5120.64,1246.23 5123.64,1245.03C5126.64,1243.83 5128.84,1241.78 5130.24,1238.88C5131.64,1235.98 5132.34,1231.93 5132.34,1226.73C5132.34,1219.63 5131.04,1214.5 5128.44,1211.35C5125.84,1208.2 5120.69,1206.63 5112.99,1206.63L5105.49,1206.63L5105.49,1246.83Z"/>
        </g>
    </g>
</svg>
